<svg width="274" height="106" viewBox="0 0 274 106" fill="none" xmlns="http://www.w3.org/2000/svg">
    <path d="M87.48 85.1626H73.0242V105.764H49.6267V85.1626H0V64.1135L42.9204 0.0705872H72.8752V64.86H87.48V85.1626ZM49.7757 64.86V25.7475H49.3286L24.2917 64.86H49.7757Z" fill="#415861"/>
    <path d="M273.96 85.1626H259.505V105.764H236.107V85.1626H186.48V64.1135L229.401 0.0705872H259.356V64.86H273.96V85.1626ZM236.256 64.86V25.7475H235.809L210.772 64.86H236.256Z" fill="#415861"/>
    <path d="M174.199 32.3968C175.72 38.5541 176.48 45.3271 176.48 52.7158C176.48 60.1046 175.72 66.9249 174.199 73.1769C172.773 79.4289 170.539 85.0652 167.497 90.0858C164.55 95.0116 160.462 98.8954 155.233 101.737C150.1 104.579 144.063 106 137.123 106C127.997 106 120.344 103.49 114.165 98.4692C108.08 93.4486 103.755 87.1019 101.188 79.4289C98.7163 71.6613 97.4805 62.7569 97.4805 52.7158C97.4805 45.3271 98.1935 38.5541 99.6195 32.3968C101.141 26.2395 103.422 20.698 106.464 15.7721C109.506 10.8463 113.642 7.00983 118.87 4.26274C124.099 1.42091 130.183 0 137.123 0C144.063 0 150.1 1.42091 155.233 4.26274C160.462 7.00983 164.55 10.8463 167.497 15.7721C170.539 20.698 172.773 26.2395 174.199 32.3968ZM151.953 52.7158C151.953 49.0214 151.763 45.5165 151.383 42.2011C151.003 38.7909 150.29 35.3333 149.244 31.8284C148.293 28.3235 146.772 25.5291 144.681 23.445C142.589 21.2663 140.07 20.1769 137.123 20.1769C134.176 20.1769 131.609 21.2663 129.423 23.445C127.331 25.5291 125.763 28.3235 124.717 31.8284C123.766 35.3333 123.053 38.7909 122.578 42.2011C122.198 45.5165 122.008 49.0214 122.008 52.7158C122.008 56.4102 122.198 59.9625 122.578 63.3727C123.053 66.7828 123.766 70.2878 124.717 73.8874C125.763 77.3923 127.331 80.2341 129.423 82.4129C131.514 84.4969 134.081 85.5389 137.123 85.5389C140.07 85.5389 142.589 84.4969 144.681 82.4129C146.772 80.2341 148.293 77.3923 149.244 73.8874C150.29 70.2878 151.003 66.8302 151.383 63.5147C151.763 60.1046 151.953 56.5049 151.953 52.7158Z" fill="#FFB71B"/>
</svg>
