<svg width="197" height="197" viewBox="0 0 197 197" fill="none" xmlns="http://www.w3.org/2000/svg">
    <g filter="url(#filter0_d_0_1)">
        <circle cx="98.5" cy="98.5" r="88.5" fill="white"/>
    </g>
    <path d="M98.9997 57.3335C75.9997 57.3335 57.333 76.0002 57.333 99.0002C57.333 122 75.9997 140.667 98.9997 140.667C122 140.667 140.666 122 140.666 99.0002C140.666 76.0002 122 57.3335 98.9997 57.3335ZM85.0413 110.542C84.583 111.792 83.3747 112.583 82.1247 112.583C81.7497 112.583 81.4163 112.542 81.0413 112.375C77.6663 111.125 74.833 108.667 73.0413 105.458C68.8747 97.9585 71.458 88.1668 78.7497 83.6252L88.4997 77.5835C92.083 75.3752 96.2913 74.7085 100.291 75.7502C104.291 76.7918 107.666 79.4168 109.708 83.0835C113.875 90.5835 111.291 100.375 104 104.917L102.916 105.708C102.239 106.186 101.402 106.38 100.584 106.247C99.7664 106.115 99.0329 105.667 98.5413 105C98.0636 104.323 97.8702 103.486 98.0026 102.668C98.135 101.85 98.5827 101.117 99.2497 100.625L100.541 99.7085C105.208 96.7918 106.791 90.7502 104.25 86.1252C103.041 83.9585 101.083 82.4168 98.7497 81.7918C96.4163 81.1668 93.958 81.5418 91.833 82.8752L81.9997 88.9585C77.4997 91.7502 75.9163 97.7918 78.458 102.458C79.4997 104.333 81.1663 105.792 83.1663 106.542C84.7913 107.125 85.6247 108.917 85.0413 110.542ZM119.5 114.208L109.75 120.25C108.012 121.342 106.069 122.064 104.04 122.372C102.012 122.68 99.9413 122.568 97.958 122.042C93.958 121 90.583 118.375 88.583 114.708C84.4163 107.208 86.9997 97.4168 94.2913 92.8752L95.3747 92.0835C96.0516 91.6057 96.8888 91.4123 97.7067 91.5447C98.5246 91.6772 99.2581 92.1249 99.7497 92.7918C100.75 94.2085 100.416 96.1668 99.0413 97.1668L97.7497 98.0835C93.083 101 91.4997 107.042 94.0413 111.667C95.2497 113.833 97.208 115.375 99.5413 116C101.875 116.625 104.333 116.25 106.458 114.917L116.208 108.875C120.708 106.083 122.291 100.042 119.75 95.3752C118.708 93.5002 117.041 92.0418 115.041 91.2918C114.655 91.1546 114.299 90.9412 113.997 90.6643C113.694 90.3873 113.45 90.0524 113.279 89.6794C113.108 89.3064 113.014 88.9029 113.001 88.4928C112.989 88.0827 113.06 87.6743 113.208 87.2918C113.347 86.9065 113.562 86.5528 113.839 86.2513C114.116 85.9499 114.451 85.7067 114.823 85.536C115.196 85.3653 115.598 85.2706 116.008 85.2573C116.417 85.244 116.825 85.3124 117.208 85.4585C120.583 86.7085 123.416 89.1668 125.208 92.3752C129.333 99.8752 126.791 109.667 119.5 114.208Z" fill="black"/>
    <defs>
        <filter id="filter0_d_0_1" x="0" y="0" width="197" height="197" filterUnits="userSpaceOnUse" color-interpolation-filters="sRGB">
            <feFlood flood-opacity="0" result="BackgroundImageFix"/>
            <feColorMatrix in="SourceAlpha" type="matrix" values="0 0 0 0 0 0 0 0 0 0 0 0 0 0 0 0 0 0 127 0" result="hardAlpha"/>
            <feMorphology radius="6" operator="erode" in="SourceAlpha" result="effect1_dropShadow_0_1"/>
            <feOffset/>
            <feGaussianBlur stdDeviation="8"/>
            <feComposite in2="hardAlpha" operator="out"/>
            <feColorMatrix type="matrix" values="0 0 0 0 0 0 0 0 0 0 0 0 0 0 0 0 0 0 0.25 0"/>
            <feBlend mode="normal" in2="BackgroundImageFix" result="effect1_dropShadow_0_1"/>
            <feBlend mode="normal" in="SourceGraphic" in2="effect1_dropShadow_0_1" result="shape"/>
        </filter>
    </defs>
</svg>
