<svg width="197" height="197" viewBox="0 0 197 197" fill="none" xmlns="http://www.w3.org/2000/svg">
    <g filter="url(#filter0_d_0_1)">
        <circle cx="98.5" cy="98.5" r="88.5" fill="white"/>
    </g>
    <path d="M122.458 114.291L105.625 98.9998H94.3334L77.5001 114.291C75.2104 116.337 73.6033 119.036 72.8955 122.024C72.1876 125.011 72.4132 128.144 73.5418 131C74.6469 133.856 76.5929 136.309 79.1225 138.035C81.6521 139.761 84.6461 140.679 87.7084 140.666H112.25C118.583 140.666 124.125 136.875 126.417 131C128.708 125.083 127.167 118.541 122.458 114.291ZM107.583 124.583H92.4167C91.6653 124.583 90.9446 124.285 90.4133 123.753C89.8819 123.222 89.5834 122.501 89.5834 121.75C89.5834 120.208 90.8751 118.916 92.4167 118.916H107.583C109.167 118.916 110.417 120.208 110.417 121.75C110.417 123.291 109.125 124.583 107.583 124.583ZM126.458 66.9998C125.353 64.1438 123.407 61.6905 120.878 59.9644C118.348 58.2384 115.354 57.3208 112.292 57.3331H87.7084C84.6434 57.3215 81.6471 58.2414 79.1166 59.971C76.5861 61.7005 74.6408 64.158 73.5384 67.018C72.4359 69.878 72.2285 73.0054 72.9434 75.9859C73.6583 78.9665 75.2619 81.6595 77.5418 83.7081L94.3751 98.9998H105.667L122.5 83.7081C124.773 81.651 126.369 78.9524 127.076 75.9691C127.783 72.9858 127.567 69.8582 126.458 66.9998ZM107.583 79.1248H92.4167C91.6653 79.1248 90.9446 78.8263 90.4133 78.2949C89.8819 77.7636 89.5834 77.0429 89.5834 76.2915C89.5834 74.7498 90.8751 73.4581 92.4167 73.4581H107.583C109.167 73.4581 110.417 74.7498 110.417 76.2915C110.417 77.8331 109.125 79.1248 107.583 79.1248Z" fill="black"/>
    <defs>
        <filter id="filter0_d_0_1" x="0" y="0" width="197" height="197" filterUnits="userSpaceOnUse" color-interpolation-filters="sRGB">
            <feFlood flood-opacity="0" result="BackgroundImageFix"/>
            <feColorMatrix in="SourceAlpha" type="matrix" values="0 0 0 0 0 0 0 0 0 0 0 0 0 0 0 0 0 0 127 0" result="hardAlpha"/>
            <feMorphology radius="6" operator="erode" in="SourceAlpha" result="effect1_dropShadow_0_1"/>
            <feOffset/>
            <feGaussianBlur stdDeviation="8"/>
            <feComposite in2="hardAlpha" operator="out"/>
            <feColorMatrix type="matrix" values="0 0 0 0 0 0 0 0 0 0 0 0 0 0 0 0 0 0 0.25 0"/>
            <feBlend mode="normal" in2="BackgroundImageFix" result="effect1_dropShadow_0_1"/>
            <feBlend mode="normal" in="SourceGraphic" in2="effect1_dropShadow_0_1" result="shape"/>
        </filter>
    </defs>
</svg>
