<svg width="197" height="197" viewBox="0 0 197 197" fill="none" xmlns="http://www.w3.org/2000/svg">
    <g filter="url(#filter0_d_0_1)">
        <circle cx="98.5" cy="98.5" r="88.5" fill="white"/>
    </g>
    <path d="M93.1663 66.2918C93.1663 67.0835 92.4997 67.7502 91.708 67.7502H86.9997C77.9997 67.7502 70.6663 75.0835 70.6663 84.0835V122.542C70.6663 123.333 69.9997 124 69.208 124H66.2913C61.333 124 57.333 120 57.333 115.042V66.2918C57.333 61.3335 61.333 57.3335 66.2913 57.3335H84.208C89.1663 57.3335 93.1663 61.3335 93.1663 66.2918ZM140.666 66.2918V115.042C140.666 120 136.666 124 131.708 124H129.083C128.291 124 127.625 123.333 127.625 122.542V84.0835C127.625 75.0835 120.291 67.7502 111.291 67.7502H106.291C105.5 67.7502 104.833 67.0835 104.833 66.2918C104.833 61.3335 108.833 57.3335 113.791 57.3335H131.708C136.666 57.3335 140.666 61.3335 140.666 66.2918Z" fill="black"/>
    <path d="M111.292 74H87.0003C81.417 74 76.917 78.5 76.917 84.0833V130.583C76.917 136.167 81.417 140.667 87.0003 140.667H93.792C94.9587 140.667 95.8753 139.75 95.8753 138.583V128.167C95.8753 126.458 97.292 125.042 99.0003 125.042C100.709 125.042 102.125 126.458 102.125 128.167V138.583C102.125 139.75 103.042 140.667 104.209 140.667H111.334C116.875 140.667 121.375 136.167 121.375 130.625V84.0833C121.375 78.5 116.875 74 111.292 74ZM107.334 110.458H90.667C88.9587 110.458 87.542 109.042 87.542 107.333C87.542 105.625 88.9587 104.208 90.667 104.208H107.334C109.042 104.208 110.459 105.625 110.459 107.333C110.459 109.042 109.042 110.458 107.334 110.458ZM107.334 97.9583H90.667C88.9587 97.9583 87.542 96.5417 87.542 94.8333C87.542 93.125 88.9587 91.7083 90.667 91.7083H107.334C109.042 91.7083 110.459 93.125 110.459 94.8333C110.459 96.5417 109.042 97.9583 107.334 97.9583Z" fill="black"/>
    <defs>
        <filter id="filter0_d_0_1" x="0" y="0" width="197" height="197" filterUnits="userSpaceOnUse" color-interpolation-filters="sRGB">
            <feFlood flood-opacity="0" result="BackgroundImageFix"/>
            <feColorMatrix in="SourceAlpha" type="matrix" values="0 0 0 0 0 0 0 0 0 0 0 0 0 0 0 0 0 0 127 0" result="hardAlpha"/>
            <feMorphology radius="6" operator="erode" in="SourceAlpha" result="effect1_dropShadow_0_1"/>
            <feOffset/>
            <feGaussianBlur stdDeviation="8"/>
            <feComposite in2="hardAlpha" operator="out"/>
            <feColorMatrix type="matrix" values="0 0 0 0 0 0 0 0 0 0 0 0 0 0 0 0 0 0 0.25 0"/>
            <feBlend mode="normal" in2="BackgroundImageFix" result="effect1_dropShadow_0_1"/>
            <feBlend mode="normal" in="SourceGraphic" in2="effect1_dropShadow_0_1" result="shape"/>
        </filter>
    </defs>
</svg>
