<svg width="241" height="241" viewBox="0 0 241 241" fill="none" xmlns="http://www.w3.org/2000/svg">
    <g filter="url(#filter0_bd_48_1563)">
        <rect x="4" width="233" height="233" rx="17" fill="black" fill-opacity="0.3" shape-rendering="crispEdges"/>
    </g>
    <path d="M67.1344 59L63.1394 48.358H63.0714C63.094 48.5847 63.111 48.8737 63.1224 49.225C63.145 49.5763 63.162 49.9617 63.1734 50.381C63.1847 50.789 63.1904 51.2083 63.1904 51.639V59H61.7794V46.862H64.0404L67.7804 56.807H67.8484L71.6564 46.862H73.9004V59H72.3874V51.537C72.3874 51.1403 72.393 50.7493 72.4044 50.364C72.4157 49.9673 72.4327 49.599 72.4554 49.259C72.478 48.9077 72.495 48.613 72.5064 48.375H72.4384L68.3924 59H67.1344ZM80.5172 49.718C81.2992 49.718 81.9679 49.888 82.5232 50.228C83.0899 50.568 83.5206 51.0497 83.8152 51.673C84.1212 52.285 84.2742 53.0047 84.2742 53.832V54.733H78.0352C78.0579 55.7643 78.3186 56.552 78.8172 57.096C79.3272 57.6287 80.0356 57.895 80.9422 57.895C81.5202 57.895 82.0302 57.844 82.4722 57.742C82.9256 57.6287 83.3902 57.47 83.8662 57.266V58.575C83.4016 58.779 82.9426 58.9263 82.4892 59.017C82.0359 59.119 81.4976 59.17 80.8742 59.17C80.0129 59.17 79.2479 58.9943 78.5792 58.643C77.9219 58.2917 77.4062 57.7703 77.0322 57.079C76.6696 56.3763 76.4882 55.5207 76.4882 54.512C76.4882 53.5147 76.6526 52.659 76.9812 51.945C77.3212 51.231 77.7916 50.6813 78.3922 50.296C79.0042 49.9107 79.7126 49.718 80.5172 49.718ZM80.5002 50.942C79.7862 50.942 79.2196 51.1743 78.8002 51.639C78.3922 52.0923 78.1486 52.727 78.0692 53.543H82.7102C82.7102 53.0217 82.6309 52.5683 82.4722 52.183C82.3136 51.7977 82.0699 51.4973 81.7412 51.282C81.4239 51.0553 81.0102 50.942 80.5002 50.942ZM92.8839 51.146H89.9089V59H88.4299V51.146H85.4889V49.888H92.8839V51.146ZM102.435 54.427C102.435 55.1863 102.333 55.8607 102.129 56.45C101.936 57.028 101.653 57.521 101.279 57.929C100.916 58.337 100.469 58.6487 99.9359 58.864C99.4145 59.068 98.8309 59.17 98.1849 59.17C97.5842 59.17 97.0289 59.068 96.5189 58.864C96.0089 58.6487 95.5669 58.337 95.1929 57.929C94.8189 57.521 94.5242 57.028 94.3089 56.45C94.1049 55.8607 94.0029 55.1863 94.0029 54.427C94.0029 53.4183 94.1729 52.5683 94.5129 51.877C94.8529 51.1743 95.3402 50.6417 95.9749 50.279C96.6095 49.905 97.3632 49.718 98.2359 49.718C99.0632 49.718 99.7885 49.905 100.412 50.279C101.047 50.6417 101.54 51.1743 101.891 51.877C102.254 52.5683 102.435 53.4183 102.435 54.427ZM95.5499 54.427C95.5499 55.141 95.6405 55.7643 95.8219 56.297C96.0145 56.8183 96.3092 57.2207 96.7059 57.504C97.1025 57.7873 97.6069 57.929 98.2189 57.929C98.8309 57.929 99.3352 57.7873 99.7319 57.504C100.129 57.2207 100.418 56.8183 100.599 56.297C100.792 55.7643 100.888 55.141 100.888 54.427C100.888 53.7017 100.792 53.084 100.599 52.574C100.406 52.064 100.112 51.673 99.7149 51.401C99.3295 51.1177 98.8252 50.976 98.2019 50.976C97.2725 50.976 96.5982 51.282 96.1789 51.894C95.7595 52.506 95.5499 53.3503 95.5499 54.427ZM111.572 49.888V57.742H112.898V62.162H111.453V59H105.112V62.162H103.684V57.742H104.415C104.936 57.0167 105.367 56.229 105.707 55.379C106.058 54.5177 106.319 53.6223 106.489 52.693C106.67 51.7523 106.767 50.8173 106.778 49.888H111.572ZM108.104 51.061C108.059 51.8317 107.94 52.6307 107.747 53.458C107.554 54.274 107.305 55.056 106.999 55.804C106.704 56.552 106.359 57.198 105.962 57.742H110.127V51.061H108.104ZM116.095 55.447C116.095 55.549 116.089 55.6963 116.078 55.889C116.078 56.0703 116.072 56.2687 116.061 56.484C116.049 56.688 116.038 56.8863 116.027 57.079C116.015 57.2603 116.004 57.4077 115.993 57.521L120.872 49.888H122.708V59H121.314V53.628C121.314 53.4467 121.314 53.2087 121.314 52.914C121.325 52.6193 121.336 52.3303 121.348 52.047C121.359 51.7523 121.37 51.5313 121.382 51.384L116.537 59H114.684V49.888H116.095V55.447ZM126.917 53.203C126.917 53.7357 127.064 54.1323 127.359 54.393C127.665 54.6423 128.101 54.767 128.668 54.767C129.234 54.767 129.75 54.682 130.215 54.512C130.679 54.3307 131.155 54.0927 131.643 53.798V49.888H133.139V59H131.643V54.937C131.133 55.2657 130.628 55.5263 130.13 55.719C129.642 55.9003 129.053 55.991 128.362 55.991C127.432 55.991 126.707 55.7473 126.186 55.26C125.676 54.7727 125.421 54.121 125.421 53.305V49.888H126.917V53.203ZM139.552 49.718C140.334 49.718 141.003 49.888 141.558 50.228C142.125 50.568 142.556 51.0497 142.85 51.673C143.156 52.285 143.309 53.0047 143.309 53.832V54.733H137.07C137.093 55.7643 137.354 56.552 137.852 57.096C138.362 57.6287 139.071 57.895 139.977 57.895C140.555 57.895 141.065 57.844 141.507 57.742C141.961 57.6287 142.425 57.47 142.901 57.266V58.575C142.437 58.779 141.978 58.9263 141.524 59.017C141.071 59.119 140.533 59.17 139.909 59.17C139.048 59.17 138.283 58.9943 137.614 58.643C136.957 58.2917 136.441 57.7703 136.067 57.079C135.705 56.3763 135.523 55.5207 135.523 54.512C135.523 53.5147 135.688 52.659 136.016 51.945C136.356 51.231 136.827 50.6813 137.427 50.296C138.039 49.9107 138.748 49.718 139.552 49.718ZM139.535 50.942C138.821 50.942 138.255 51.1743 137.835 51.639C137.427 52.0923 137.184 52.727 137.104 53.543H141.745C141.745 53.0217 141.666 52.5683 141.507 52.183C141.349 51.7977 141.105 51.4973 140.776 51.282C140.459 51.0553 140.045 50.942 139.535 50.942ZM149.284 59.17C148.479 59.17 147.76 59.0057 147.125 58.677C146.502 58.3483 146.009 57.8383 145.646 57.147C145.295 56.4557 145.119 55.5717 145.119 54.495C145.119 53.373 145.306 52.4607 145.68 51.758C146.054 51.0553 146.558 50.5397 147.193 50.211C147.839 49.8823 148.57 49.718 149.386 49.718C149.851 49.718 150.298 49.769 150.729 49.871C151.16 49.9617 151.511 50.075 151.783 50.211L151.324 51.452C151.052 51.35 150.735 51.2537 150.372 51.163C150.009 51.0723 149.669 51.027 149.352 51.027C148.74 51.027 148.236 51.1573 147.839 51.418C147.442 51.6787 147.148 52.064 146.955 52.574C146.762 53.084 146.666 53.7187 146.666 54.478C146.666 55.2033 146.762 55.821 146.955 56.331C147.148 56.841 147.437 57.2263 147.822 57.487C148.207 57.7477 148.689 57.878 149.267 57.878C149.766 57.878 150.202 57.827 150.576 57.725C150.961 57.623 151.313 57.4983 151.63 57.351V58.677C151.324 58.8357 150.984 58.9547 150.61 59.034C150.247 59.1247 149.805 59.17 149.284 59.17ZM159.186 49.888H160.818L156.925 54.274L161.141 59H159.407L155.293 54.376V59H153.797V49.888H155.293V54.308L159.186 49.888ZM164.206 55.447C164.206 55.549 164.2 55.6963 164.189 55.889C164.189 56.0703 164.183 56.2687 164.172 56.484C164.161 56.688 164.149 56.8863 164.138 57.079C164.127 57.2603 164.115 57.4077 164.104 57.521L168.983 49.888H170.819V59H169.425V53.628C169.425 53.4467 169.425 53.2087 169.425 52.914C169.436 52.6193 169.448 52.3303 169.459 52.047C169.47 51.7523 169.482 51.5313 169.493 51.384L164.648 59H162.795V49.888H164.206V55.447ZM177.238 49.718C178.02 49.718 178.689 49.888 179.244 50.228C179.811 50.568 180.241 51.0497 180.536 51.673C180.842 52.285 180.995 53.0047 180.995 53.832V54.733H174.756C174.779 55.7643 175.039 56.552 175.538 57.096C176.048 57.6287 176.756 57.895 177.663 57.895C178.241 57.895 178.751 57.844 179.193 57.742C179.646 57.6287 180.111 57.47 180.587 57.266V58.575C180.122 58.779 179.663 58.9263 179.21 59.017C178.757 59.119 178.218 59.17 177.595 59.17C176.734 59.17 175.969 58.9943 175.3 58.643C174.643 58.2917 174.127 57.7703 173.753 57.079C173.39 56.3763 173.209 55.5207 173.209 54.512C173.209 53.5147 173.373 52.659 173.702 51.945C174.042 51.231 174.512 50.6813 175.113 50.296C175.725 49.9107 176.433 49.718 177.238 49.718ZM177.221 50.942C176.507 50.942 175.94 51.1743 175.521 51.639C175.113 52.0923 174.869 52.727 174.79 53.543H179.431C179.431 53.0217 179.352 52.5683 179.193 52.183C179.034 51.7977 178.791 51.4973 178.462 51.282C178.145 51.0553 177.731 50.942 177.221 50.942ZM85.3704 68.888V78H84.0274V72.186C84.0274 71.948 84.0331 71.6987 84.0444 71.438C84.0671 71.1773 84.0897 70.9223 84.1124 70.673H84.0614L81.0864 78H79.8284L76.9384 70.673H76.8874C76.9101 70.9223 76.9214 71.1773 76.9214 71.438C76.9327 71.6987 76.9384 71.965 76.9384 72.237V78H75.5954V68.888H77.5844L80.4574 76.215L83.3814 68.888H85.3704ZM91.73 68.735C92.8407 68.735 93.6623 68.9787 94.195 69.466C94.7277 69.9533 94.994 70.7297 94.994 71.795V78H93.906L93.617 76.708H93.549C93.2883 77.0367 93.0163 77.3143 92.733 77.541C92.461 77.7563 92.1437 77.915 91.781 78.017C91.4297 78.119 90.999 78.17 90.489 78.17C89.945 78.17 89.452 78.0737 89.01 77.881C88.5793 77.6883 88.2393 77.3937 87.99 76.997C87.7407 76.589 87.616 76.079 87.616 75.467C87.616 74.5603 87.973 73.8633 88.687 73.376C89.401 72.8773 90.5003 72.6053 91.985 72.56L93.532 72.509V71.965C93.532 71.2057 93.3677 70.6787 93.039 70.384C92.7103 70.0893 92.2457 69.942 91.645 69.942C91.169 69.942 90.7157 70.0157 90.285 70.163C89.8543 70.299 89.452 70.4577 89.078 70.639L88.619 69.517C89.0157 69.3017 89.486 69.1203 90.03 68.973C90.574 68.8143 91.1407 68.735 91.73 68.735ZM92.172 73.597C91.0387 73.6423 90.251 73.8237 89.809 74.141C89.3783 74.4583 89.163 74.906 89.163 75.484C89.163 75.994 89.316 76.368 89.622 76.606C89.9393 76.844 90.3417 76.963 90.829 76.963C91.5997 76.963 92.24 76.7533 92.75 76.334C93.26 75.9033 93.515 75.246 93.515 74.362V73.546L92.172 73.597ZM104.098 70.146H101.123V78H99.6443V70.146H96.7033V68.888H104.098V70.146ZM109.246 68.718C110.028 68.718 110.697 68.888 111.252 69.228C111.819 69.568 112.25 70.0497 112.544 70.673C112.85 71.285 113.003 72.0047 113.003 72.832V73.733H106.764C106.787 74.7643 107.048 75.552 107.546 76.096C108.056 76.6287 108.765 76.895 109.671 76.895C110.249 76.895 110.759 76.844 111.201 76.742C111.655 76.6287 112.119 76.47 112.595 76.266V77.575C112.131 77.779 111.672 77.9263 111.218 78.017C110.765 78.119 110.227 78.17 109.603 78.17C108.742 78.17 107.977 77.9943 107.308 77.643C106.651 77.2917 106.135 76.7703 105.761 76.079C105.399 75.3763 105.217 74.5207 105.217 73.512C105.217 72.5147 105.382 71.659 105.71 70.945C106.05 70.231 106.521 69.6813 107.121 69.296C107.733 68.9107 108.442 68.718 109.246 68.718ZM109.229 69.942C108.515 69.942 107.949 70.1743 107.529 70.639C107.121 71.0923 106.878 71.727 106.798 72.543H111.439C111.439 72.0217 111.36 71.5683 111.201 71.183C111.043 70.7977 110.799 70.4973 110.47 70.282C110.153 70.0553 109.739 69.942 109.229 69.942ZM119.658 68.718C120.78 68.718 121.681 69.109 122.361 69.891C123.052 70.673 123.398 71.8517 123.398 73.427C123.398 74.4583 123.239 75.331 122.922 76.045C122.616 76.7477 122.18 77.2803 121.613 77.643C121.058 77.9943 120.4 78.17 119.641 78.17C119.176 78.17 118.763 78.1077 118.4 77.983C118.037 77.8583 117.726 77.6997 117.465 77.507C117.216 77.303 117 77.082 116.819 76.844H116.717C116.74 77.0367 116.762 77.2803 116.785 77.575C116.808 77.8697 116.819 78.1247 116.819 78.34V82.08H115.323V68.888H116.547L116.751 70.129H116.819C117 69.8683 117.216 69.6303 117.465 69.415C117.726 69.1997 118.032 69.0297 118.383 68.905C118.746 68.7803 119.171 68.718 119.658 68.718ZM119.386 69.976C118.774 69.976 118.281 70.095 117.907 70.333C117.533 70.5597 117.261 70.9053 117.091 71.37C116.921 71.8347 116.83 72.424 116.819 73.138V73.427C116.819 74.175 116.898 74.8097 117.057 75.331C117.216 75.8523 117.482 76.249 117.856 76.521C118.241 76.793 118.763 76.929 119.42 76.929C119.975 76.929 120.429 76.776 120.78 76.47C121.143 76.164 121.409 75.7503 121.579 75.229C121.76 74.6963 121.851 74.09 121.851 73.41C121.851 72.3673 121.647 71.5343 121.239 70.911C120.842 70.2877 120.225 69.976 119.386 69.976ZM127.193 74.447C127.193 74.549 127.187 74.6963 127.176 74.889C127.176 75.0703 127.17 75.2687 127.159 75.484C127.148 75.688 127.136 75.8863 127.125 76.079C127.114 76.2603 127.102 76.4077 127.091 76.521L131.97 68.888H133.806V78H132.412V72.628C132.412 72.4467 132.412 72.2087 132.412 71.914C132.423 71.6193 132.435 71.3303 132.446 71.047C132.457 70.7523 132.469 70.5313 132.48 70.384L127.635 78H125.782V68.888H127.193V74.447ZM140.157 68.735C141.267 68.735 142.089 68.9787 142.622 69.466C143.154 69.9533 143.421 70.7297 143.421 71.795V78H142.333L142.044 76.708H141.976C141.715 77.0367 141.443 77.3143 141.16 77.541C140.888 77.7563 140.57 77.915 140.208 78.017C139.856 78.119 139.426 78.17 138.916 78.17C138.372 78.17 137.879 78.0737 137.437 77.881C137.006 77.6883 136.666 77.3937 136.417 76.997C136.167 76.589 136.043 76.079 136.043 75.467C136.043 74.5603 136.4 73.8633 137.114 73.376C137.828 72.8773 138.927 72.6053 140.412 72.56L141.959 72.509V71.965C141.959 71.2057 141.794 70.6787 141.466 70.384C141.137 70.0893 140.672 69.942 140.072 69.942C139.596 69.942 139.142 70.0157 138.712 70.163C138.281 70.299 137.879 70.4577 137.505 70.639L137.046 69.517C137.442 69.3017 137.913 69.1203 138.457 68.973C139.001 68.8143 139.567 68.735 140.157 68.735ZM140.599 73.597C139.465 73.6423 138.678 73.8237 138.236 74.141C137.805 74.4583 137.59 74.906 137.59 75.484C137.59 75.994 137.743 76.368 138.049 76.606C138.366 76.844 138.768 76.963 139.256 76.963C140.026 76.963 140.667 76.7533 141.177 76.334C141.687 75.9033 141.942 75.246 141.942 74.362V73.546L140.599 73.597ZM153.171 78H151.658V70.129H148.972C148.859 71.5683 148.717 72.798 148.547 73.818C148.377 74.8267 148.162 75.6483 147.901 76.283C147.64 76.9177 147.329 77.3823 146.966 77.677C146.603 77.9717 146.178 78.119 145.691 78.119C145.544 78.119 145.396 78.1077 145.249 78.085C145.113 78.0737 145 78.0453 144.909 78V76.878C144.977 76.9007 145.051 76.9177 145.13 76.929C145.209 76.9403 145.289 76.946 145.368 76.946C145.617 76.946 145.844 76.844 146.048 76.64C146.252 76.436 146.433 76.1243 146.592 75.705C146.762 75.2857 146.915 74.7587 147.051 74.124C147.187 73.478 147.306 72.7187 147.408 71.846C147.51 70.9733 147.601 69.9873 147.68 68.888H153.171V78ZM156.063 78V68.888H157.559V72.628H159.922C160.715 72.628 161.367 72.7243 161.877 72.917C162.387 73.1097 162.767 73.3987 163.016 73.784C163.265 74.158 163.39 74.634 163.39 75.212C163.39 75.7787 163.265 76.2717 163.016 76.691C162.778 77.1103 162.398 77.4333 161.877 77.66C161.367 77.8867 160.693 78 159.854 78H156.063ZM159.718 76.793C160.364 76.793 160.891 76.6853 161.299 76.47C161.707 76.2433 161.911 75.8523 161.911 75.297C161.911 74.7417 161.724 74.3677 161.35 74.175C160.976 73.971 160.438 73.869 159.735 73.869H157.559V76.793H159.718ZM164.903 78V68.888H166.399V78H164.903Z" fill="white"/>
    <rect x="84.2549" y="116.5" width="71.6259" height="71.6259" rx="16" fill="url(#paint0_linear_48_1563)"/>
    <mask id="mask0_48_1563" style="mask-type:alpha" maskUnits="userSpaceOnUse" x="92" y="125" width="55" height="55">
        <path d="M136.067 136.896L123.003 131.078C121.086 130.231 118.188 130.231 116.271 131.078L103.207 136.896C99.9074 138.368 99.417 140.374 99.417 141.444C99.417 142.514 99.9074 144.52 103.207 145.992L116.271 151.81C117.229 152.234 118.433 152.457 119.637 152.457C120.841 152.457 122.045 152.234 123.003 151.81L136.067 145.992C139.366 144.52 139.857 142.514 139.857 141.444C139.857 140.374 139.389 138.368 136.067 136.896Z" fill="black"/>
        <path d="M119.636 163.98C118.789 163.98 117.942 163.802 117.162 163.467L102.136 156.78C99.8401 155.754 98.0566 153.012 98.0566 150.493C98.0566 149.579 98.7923 148.843 99.7063 148.843C100.62 148.843 101.356 149.579 101.356 150.493C101.356 151.697 102.359 153.257 103.474 153.748L118.5 160.436C119.213 160.748 120.038 160.748 120.751 160.436L135.777 153.748C136.891 153.257 137.895 151.719 137.895 150.493C137.895 149.579 138.63 148.843 139.544 148.843C140.458 148.843 141.194 149.579 141.194 150.493C141.194 152.99 139.411 155.754 137.114 156.78L122.089 163.467C121.331 163.802 120.484 163.98 119.636 163.98Z" fill="black"/>
        <path d="M119.636 175.038C118.789 175.038 117.942 174.859 117.162 174.525L102.136 167.837C100.921 167.296 99.889 166.414 99.1649 165.298C98.4408 164.182 98.0559 162.88 98.0566 161.55C98.0566 160.636 98.7923 159.901 99.7063 159.901C100.62 159.901 101.356 160.636 101.356 161.55C101.356 162.955 102.181 164.225 103.474 164.805L118.5 171.493C119.213 171.805 120.038 171.805 120.751 171.493L135.777 164.805C137.047 164.248 137.895 162.955 137.895 161.55C137.895 160.636 138.63 159.901 139.544 159.901C140.458 159.901 141.194 160.636 141.194 161.55C141.194 164.27 139.589 166.722 137.114 167.837L122.089 174.525C121.331 174.859 120.484 175.038 119.636 175.038Z" fill="black"/>
    </mask>
    <g mask="url(#mask0_48_1563)">
        <rect x="96.1689" y="124.034" width="49.1194" height="57.4213" fill="url(#paint1_linear_48_1563)"/>
    </g>
    <g filter="url(#filter1_f_48_1563)">
        <rect x="100.111" y="121.421" width="39.3669" height="2.18705" fill="#CCCEFF"/>
    </g>
    <g filter="url(#filter2_f_48_1563)">
        <rect x="88.6289" y="171.176" width="39.3669" height="1.64029" transform="rotate(-90 88.6289 171.176)" fill="#CCCEFF"/>
    </g>
    <g filter="url(#filter3_f_48_1563)">
        <rect x="149.319" y="172.27" width="39.3669" height="3.28058" transform="rotate(-90 149.319 172.27)" fill="#CCCEFF"/>
    </g>
    <g filter="url(#filter4_f_48_1563)">
        <rect x="150.413" y="143.838" width="10.9353" height="1.09353" transform="rotate(-90 150.413 143.838)" fill="#CCCEFF"/>
    </g>
    <defs>
        <filter id="filter0_bd_48_1563" x="-7" y="-11" width="255" height="255" filterUnits="userSpaceOnUse" color-interpolation-filters="sRGB">
            <feFlood flood-opacity="0" result="BackgroundImageFix"/>
            <feGaussianBlur in="BackgroundImageFix" stdDeviation="5.5"/>
            <feComposite in2="SourceAlpha" operator="in" result="effect1_backgroundBlur_48_1563"/>
            <feColorMatrix in="SourceAlpha" type="matrix" values="0 0 0 0 0 0 0 0 0 0 0 0 0 0 0 0 0 0 127 0" result="hardAlpha"/>
            <feOffset dy="4"/>
            <feGaussianBlur stdDeviation="2"/>
            <feComposite in2="hardAlpha" operator="out"/>
            <feColorMatrix type="matrix" values="0 0 0 0 0 0 0 0 0 0 0 0 0 0 0 0 0 0 0.25 0"/>
            <feBlend mode="normal" in2="effect1_backgroundBlur_48_1563" result="effect2_dropShadow_48_1563"/>
            <feBlend mode="normal" in="SourceGraphic" in2="effect2_dropShadow_48_1563" result="shape"/>
        </filter>
        <filter id="filter1_f_48_1563" x="68.1113" y="89.4209" width="103.367" height="66.187" filterUnits="userSpaceOnUse" color-interpolation-filters="sRGB">
            <feFlood flood-opacity="0" result="BackgroundImageFix"/>
            <feBlend mode="normal" in="SourceGraphic" in2="BackgroundImageFix" result="shape"/>
            <feGaussianBlur stdDeviation="16" result="effect1_foregroundBlur_48_1563"/>
        </filter>
        <filter id="filter2_f_48_1563" x="56.6289" y="99.8093" width="65.6406" height="103.367" filterUnits="userSpaceOnUse" color-interpolation-filters="sRGB">
            <feFlood flood-opacity="0" result="BackgroundImageFix"/>
            <feBlend mode="normal" in="SourceGraphic" in2="BackgroundImageFix" result="shape"/>
            <feGaussianBlur stdDeviation="16" result="effect1_foregroundBlur_48_1563"/>
        </filter>
        <filter id="filter3_f_48_1563" x="117.319" y="100.903" width="67.2803" height="103.367" filterUnits="userSpaceOnUse" color-interpolation-filters="sRGB">
            <feFlood flood-opacity="0" result="BackgroundImageFix"/>
            <feBlend mode="normal" in="SourceGraphic" in2="BackgroundImageFix" result="shape"/>
            <feGaussianBlur stdDeviation="16" result="effect1_foregroundBlur_48_1563"/>
        </filter>
        <filter id="filter4_f_48_1563" x="136.413" y="118.903" width="29.0938" height="38.9353" filterUnits="userSpaceOnUse" color-interpolation-filters="sRGB">
            <feFlood flood-opacity="0" result="BackgroundImageFix"/>
            <feBlend mode="normal" in="SourceGraphic" in2="BackgroundImageFix" result="shape"/>
            <feGaussianBlur stdDeviation="7" result="effect1_foregroundBlur_48_1563"/>
        </filter>
        <linearGradient id="paint0_linear_48_1563" x1="120.068" y1="116.5" x2="120.068" y2="188.126" gradientUnits="userSpaceOnUse">
            <stop stop-color="#4B72FE"/>
            <stop offset="1" stop-color="#2925C8"/>
        </linearGradient>
        <linearGradient id="paint1_linear_48_1563" x1="120.729" y1="124.034" x2="120.729" y2="181.455" gradientUnits="userSpaceOnUse">
            <stop stop-color="white"/>
            <stop offset="0.484375" stop-color="#E2D8DC"/>
            <stop offset="0.734375" stop-color="#E9EAF2"/>
            <stop offset="1" stop-color="#C4C3F9"/>
        </linearGradient>
    </defs>
</svg>
