<svg width="241" height="241" viewBox="0 0 241 241" fill="none" xmlns="http://www.w3.org/2000/svg">
    <g filter="url(#filter0_bd_48_1614)">
        <rect x="4" width="233" height="233" rx="17" fill="black" fill-opacity="0.3" shape-rendering="crispEdges"/>
    </g>
    <path d="M55.3549 38.035C54.7089 38.035 54.1252 38.1483 53.6039 38.375C53.0826 38.5903 52.6406 38.9133 52.2779 39.344C51.9152 39.7633 51.6376 40.279 51.4449 40.891C51.2522 41.4917 51.1559 42.1717 51.1559 42.931C51.1559 43.9283 51.3089 44.7953 51.6149 45.532C51.9322 46.2687 52.3969 46.8353 53.0089 47.232C53.6322 47.6287 54.4086 47.827 55.3379 47.827C55.8706 47.827 56.3749 47.7817 56.8509 47.691C57.3269 47.6003 57.7916 47.487 58.2449 47.351V48.677C57.7916 48.847 57.3212 48.9717 56.8339 49.051C56.3579 49.1303 55.7856 49.17 55.1169 49.17C53.8816 49.17 52.8502 48.915 52.0229 48.405C51.1956 47.895 50.5722 47.1697 50.1529 46.229C49.7449 45.2883 49.5409 44.1833 49.5409 42.914C49.5409 41.996 49.6656 41.1573 49.9149 40.398C50.1756 39.6387 50.5496 38.9813 51.0369 38.426C51.5356 37.8707 52.1476 37.4457 52.8729 37.151C53.5982 36.845 54.4312 36.692 55.3719 36.692C55.9952 36.692 56.5959 36.7543 57.1739 36.879C57.7519 37.0037 58.2676 37.1793 58.7209 37.406L58.1089 38.698C57.7349 38.528 57.3156 38.375 56.8509 38.239C56.3976 38.103 55.8989 38.035 55.3549 38.035ZM64.2091 39.718C64.9911 39.718 65.6598 39.888 66.2151 40.228C66.7818 40.568 67.2125 41.0497 67.5071 41.673C67.8131 42.285 67.9661 43.0047 67.9661 43.832V44.733H61.7271C61.7498 45.7643 62.0105 46.552 62.5091 47.096C63.0191 47.6287 63.7275 47.895 64.6341 47.895C65.2121 47.895 65.7221 47.844 66.1641 47.742C66.6175 47.6287 67.0821 47.47 67.5581 47.266V48.575C67.0935 48.779 66.6345 48.9263 66.1811 49.017C65.7278 49.119 65.1895 49.17 64.5661 49.17C63.7048 49.17 62.9398 48.9943 62.2711 48.643C61.6138 48.2917 61.0981 47.7703 60.7241 47.079C60.3615 46.3763 60.1801 45.5207 60.1801 44.512C60.1801 43.5147 60.3445 42.659 60.6731 41.945C61.0131 41.231 61.4835 40.6813 62.0841 40.296C62.6961 39.9107 63.4045 39.718 64.2091 39.718ZM64.1921 40.942C63.4781 40.942 62.9115 41.1743 62.4921 41.639C62.0841 42.0923 61.8405 42.727 61.7611 43.543H66.4021C66.4021 43.0217 66.3228 42.5683 66.1641 42.183C66.0055 41.7977 65.7618 41.4973 65.4331 41.282C65.1158 41.0553 64.7021 40.942 64.1921 40.942ZM74.6208 39.718C75.7428 39.718 76.6438 40.109 77.3238 40.891C78.0152 41.673 78.3608 42.8517 78.3608 44.427C78.3608 45.4583 78.2022 46.331 77.8848 47.045C77.5788 47.7477 77.1425 48.2803 76.5758 48.643C76.0205 48.9943 75.3632 49.17 74.6038 49.17C74.1392 49.17 73.7255 49.1077 73.3628 48.983C73.0002 48.8583 72.6885 48.6997 72.4278 48.507C72.1785 48.303 71.9632 48.082 71.7818 47.844H71.6798C71.7025 48.0367 71.7252 48.2803 71.7478 48.575C71.7705 48.8697 71.7818 49.1247 71.7818 49.34V53.08H70.2858V39.888H71.5098L71.7138 41.129H71.7818C71.9632 40.8683 72.1785 40.6303 72.4278 40.415C72.6885 40.1997 72.9945 40.0297 73.3458 39.905C73.7085 39.7803 74.1335 39.718 74.6208 39.718ZM74.3488 40.976C73.7368 40.976 73.2438 41.095 72.8698 41.333C72.4958 41.5597 72.2238 41.9053 72.0538 42.37C71.8838 42.8347 71.7932 43.424 71.7818 44.138V44.427C71.7818 45.175 71.8612 45.8097 72.0198 46.331C72.1785 46.8523 72.4448 47.249 72.8188 47.521C73.2042 47.793 73.7255 47.929 74.3828 47.929C74.9382 47.929 75.3915 47.776 75.7428 47.47C76.1055 47.164 76.3718 46.7503 76.5418 46.229C76.7232 45.6963 76.8138 45.09 76.8138 44.41C76.8138 43.3673 76.6098 42.5343 76.2018 41.911C75.8052 41.2877 75.1875 40.976 74.3488 40.976ZM86.8688 41.146H83.8938V49H82.4148V41.146H79.4738V39.888H86.8688V41.146ZM90.0748 45.447C90.0748 45.549 90.0691 45.6963 90.0578 45.889C90.0578 46.0703 90.0521 46.2687 90.0408 46.484C90.0294 46.688 90.0181 46.8863 90.0068 47.079C89.9954 47.2603 89.9841 47.4077 89.9728 47.521L94.8518 39.888H96.6878V49H95.2938V43.628C95.2938 43.4467 95.2938 43.2087 95.2938 42.914C95.3051 42.6193 95.3164 42.3303 95.3278 42.047C95.3391 41.7523 95.3504 41.5313 95.3618 41.384L90.5168 49H88.6638V39.888H90.0748V45.447ZM105.028 39.752C105.934 39.8313 106.722 40.0693 107.391 40.466C108.071 40.8627 108.598 41.3953 108.972 42.064C109.346 42.7327 109.533 43.526 109.533 44.444C109.533 45.362 109.351 46.161 108.989 46.841C108.626 47.5097 108.11 48.0423 107.442 48.439C106.773 48.8243 105.968 49.0567 105.028 49.136V53.08H103.566V49.136C102.67 49.0567 101.883 48.8243 101.203 48.439C100.523 48.0423 99.9956 47.5097 99.6216 46.841C99.2476 46.161 99.0606 45.362 99.0606 44.444C99.0606 43.5147 99.2419 42.7157 99.6046 42.047C99.9672 41.367 100.489 40.8343 101.169 40.449C101.849 40.0523 102.665 39.82 103.617 39.752V36.08H105.028V39.752ZM103.617 40.993C102.925 41.061 102.359 41.2367 101.917 41.52C101.475 41.8033 101.146 42.1887 100.931 42.676C100.727 43.1633 100.625 43.7527 100.625 44.444C100.625 45.124 100.727 45.7133 100.931 46.212C101.146 46.6993 101.475 47.0903 101.917 47.385C102.359 47.6683 102.925 47.844 103.617 47.912V40.993ZM105.028 47.912C105.708 47.8327 106.263 47.6513 106.694 47.368C107.136 47.0847 107.459 46.6993 107.663 46.212C107.878 45.7133 107.986 45.124 107.986 44.444C107.986 43.764 107.878 43.1803 107.663 42.693C107.447 42.2057 107.119 41.8203 106.677 41.537C106.246 41.2537 105.696 41.078 105.028 41.01V47.912ZM113.317 45.447C113.317 45.549 113.311 45.6963 113.3 45.889C113.3 46.0703 113.294 46.2687 113.283 46.484C113.272 46.688 113.26 46.8863 113.249 47.079C113.238 47.2603 113.226 47.4077 113.215 47.521L118.094 39.888H119.93V49H118.536V43.628C118.536 43.4467 118.536 43.2087 118.536 42.914C118.547 42.6193 118.559 42.3303 118.57 42.047C118.581 41.7523 118.593 41.5313 118.604 41.384L113.759 49H111.906V39.888H113.317V45.447ZM128.219 39.888H129.851L125.958 44.274L130.174 49H128.44L124.326 44.376V49H122.83V39.888H124.326V44.308L128.219 39.888ZM135.279 39.735C136.389 39.735 137.211 39.9787 137.744 40.466C138.276 40.9533 138.543 41.7297 138.543 42.795V49H137.455L137.166 47.708H137.098C136.837 48.0367 136.565 48.3143 136.282 48.541C136.01 48.7563 135.692 48.915 135.33 49.017C134.978 49.119 134.548 49.17 134.038 49.17C133.494 49.17 133.001 49.0737 132.559 48.881C132.128 48.6883 131.788 48.3937 131.539 47.997C131.289 47.589 131.165 47.079 131.165 46.467C131.165 45.5603 131.522 44.8633 132.236 44.376C132.95 43.8773 134.049 43.6053 135.534 43.56L137.081 43.509V42.965C137.081 42.2057 136.916 41.6787 136.588 41.384C136.259 41.0893 135.794 40.942 135.194 40.942C134.718 40.942 134.264 41.0157 133.834 41.163C133.403 41.299 133.001 41.4577 132.627 41.639L132.168 40.517C132.564 40.3017 133.035 40.1203 133.579 39.973C134.123 39.8143 134.689 39.735 135.279 39.735ZM135.721 44.597C134.587 44.6423 133.8 44.8237 133.358 45.141C132.927 45.4583 132.712 45.906 132.712 46.484C132.712 46.994 132.865 47.368 133.171 47.606C133.488 47.844 133.89 47.963 134.378 47.963C135.148 47.963 135.789 47.7533 136.299 47.334C136.809 46.9033 137.064 46.246 137.064 45.362V44.546L135.721 44.597ZM147.647 41.146H144.672V49H143.193V41.146H140.252V39.888H147.647V41.146ZM149.442 49V39.888H150.938V43.628H153.301C154.094 43.628 154.746 43.7243 155.256 43.917C155.766 44.1097 156.146 44.3987 156.395 44.784C156.644 45.158 156.769 45.634 156.769 46.212C156.769 46.7787 156.644 47.2717 156.395 47.691C156.157 48.1103 155.777 48.4333 155.256 48.66C154.746 48.8867 154.072 49 153.233 49H149.442ZM153.097 47.793C153.743 47.793 154.27 47.6853 154.678 47.47C155.086 47.2433 155.29 46.8523 155.29 46.297C155.29 45.7417 155.103 45.3677 154.729 45.175C154.355 44.971 153.817 44.869 153.114 44.869H150.938V47.793H153.097ZM158.282 49V39.888H159.778V49H158.282ZM175.393 44.427C175.393 45.1863 175.291 45.8607 175.087 46.45C174.895 47.028 174.611 47.521 174.237 47.929C173.875 48.337 173.427 48.6487 172.894 48.864C172.373 49.068 171.789 49.17 171.143 49.17C170.543 49.17 169.987 49.068 169.477 48.864C168.967 48.6487 168.525 48.337 168.151 47.929C167.777 47.521 167.483 47.028 167.267 46.45C167.063 45.8607 166.961 45.1863 166.961 44.427C166.961 43.4183 167.131 42.5683 167.471 41.877C167.811 41.1743 168.299 40.6417 168.933 40.279C169.568 39.905 170.322 39.718 171.194 39.718C172.022 39.718 172.747 39.905 173.37 40.279C174.005 40.6417 174.498 41.1743 174.849 41.877C175.212 42.5683 175.393 43.4183 175.393 44.427ZM168.508 44.427C168.508 45.141 168.599 45.7643 168.78 46.297C168.973 46.8183 169.268 47.2207 169.664 47.504C170.061 47.7873 170.565 47.929 171.177 47.929C171.789 47.929 172.294 47.7873 172.69 47.504C173.087 47.2207 173.376 46.8183 173.557 46.297C173.75 45.7643 173.846 45.141 173.846 44.427C173.846 43.7017 173.75 43.084 173.557 42.574C173.365 42.064 173.07 41.673 172.673 41.401C172.288 41.1177 171.784 40.976 171.16 40.976C170.231 40.976 169.557 41.282 169.137 41.894C168.718 42.506 168.508 43.3503 168.508 44.427ZM177.288 43.526C177.288 42.2 177.419 41.0723 177.679 40.143C177.951 39.2023 178.365 38.4543 178.92 37.899C179.487 37.3323 180.212 36.9527 181.096 36.76C181.833 36.6013 182.553 36.4597 183.255 36.335C183.958 36.2103 184.615 36.097 185.227 35.995L185.482 37.304C185.188 37.3493 184.859 37.406 184.496 37.474C184.134 37.5307 183.765 37.593 183.391 37.661C183.017 37.7177 182.655 37.78 182.303 37.848C181.963 37.9047 181.663 37.9613 181.402 38.018C181.028 38.0973 180.694 38.2333 180.399 38.426C180.105 38.6073 179.85 38.8567 179.634 39.174C179.43 39.4913 179.266 39.8823 179.141 40.347C179.017 40.8117 178.943 41.3613 178.92 41.996H179.022C179.181 41.7807 179.396 41.5597 179.668 41.333C179.952 41.1063 180.286 40.9137 180.671 40.755C181.068 40.5963 181.516 40.517 182.014 40.517C182.808 40.517 183.465 40.6927 183.986 41.044C184.519 41.384 184.916 41.86 185.176 42.472C185.448 43.084 185.584 43.798 185.584 44.614C185.584 45.6227 185.409 46.467 185.057 47.147C184.706 47.827 184.219 48.337 183.595 48.677C182.972 49.0057 182.247 49.17 181.419 49.17C180.796 49.17 180.229 49.051 179.719 48.813C179.209 48.5637 178.773 48.201 178.41 47.725C178.048 47.249 177.77 46.6597 177.577 45.957C177.385 45.2543 177.288 44.444 177.288 43.526ZM181.538 47.929C182.037 47.929 182.468 47.827 182.83 47.623C183.204 47.419 183.493 47.0847 183.697 46.62C183.901 46.1553 184.003 45.5377 184.003 44.767C184.003 43.8377 183.828 43.1067 183.476 42.574C183.136 42.03 182.57 41.758 181.776 41.758C181.278 41.758 180.824 41.8713 180.416 42.098C180.008 42.3133 179.668 42.5627 179.396 42.846C179.124 43.1293 178.932 43.3673 178.818 43.56C178.818 44.1153 178.858 44.6537 178.937 45.175C179.017 45.6963 179.153 46.1667 179.345 46.586C179.549 46.994 179.827 47.3227 180.178 47.572C180.541 47.81 180.994 47.929 181.538 47.929ZM14.7865 58.888H16.3845L18.3565 64.073C18.4699 64.379 18.5719 64.6737 18.6625 64.957C18.7645 65.2403 18.8552 65.518 18.9345 65.79C19.0139 66.0507 19.0762 66.3057 19.1215 66.555H19.1895C19.2575 66.2717 19.3652 65.9033 19.5125 65.45C19.6599 64.9853 19.8129 64.5207 19.9715 64.056L21.8245 58.888H23.4395L19.5125 69.258C19.2972 69.8247 19.0422 70.3177 18.7475 70.737C18.4642 71.1677 18.1129 71.4963 17.6935 71.723C17.2855 71.961 16.7869 72.08 16.1975 72.08C15.9255 72.08 15.6875 72.063 15.4835 72.029C15.2795 72.0063 15.1039 71.978 14.9565 71.944V70.754C15.0812 70.7767 15.2285 70.7993 15.3985 70.822C15.5799 70.8447 15.7669 70.856 15.9595 70.856C16.3109 70.856 16.6112 70.788 16.8605 70.652C17.1212 70.5273 17.3422 70.3403 17.5235 70.091C17.7049 69.853 17.8579 69.5697 17.9825 69.241L18.4585 68.034L14.7865 58.888ZM28.5355 68.17C27.7309 68.17 27.0112 68.0057 26.3765 67.677C25.7532 67.3483 25.2602 66.8383 24.8975 66.147C24.5462 65.4557 24.3705 64.5717 24.3705 63.495C24.3705 62.373 24.5575 61.4607 24.9315 60.758C25.3055 60.0553 25.8099 59.5397 26.4445 59.211C27.0905 58.8823 27.8215 58.718 28.6375 58.718C29.1022 58.718 29.5499 58.769 29.9805 58.871C30.4112 58.9617 30.7625 59.075 31.0345 59.211L30.5755 60.452C30.3035 60.35 29.9862 60.2537 29.6235 60.163C29.2609 60.0723 28.9209 60.027 28.6035 60.027C27.9915 60.027 27.4872 60.1573 27.0905 60.418C26.6939 60.6787 26.3992 61.064 26.2065 61.574C26.0139 62.084 25.9175 62.7187 25.9175 63.478C25.9175 64.2033 26.0139 64.821 26.2065 65.331C26.3992 65.841 26.6882 66.2263 27.0735 66.487C27.4589 66.7477 27.9405 66.878 28.5185 66.878C29.0172 66.878 29.4535 66.827 29.8275 66.725C30.2129 66.623 30.5642 66.4983 30.8815 66.351V67.677C30.5755 67.8357 30.2355 67.9547 29.8615 68.034C29.4989 68.1247 29.0569 68.17 28.5355 68.17ZM40.7495 58.888V68H39.2535V60.163H34.5445V68H33.0485V58.888H40.7495ZM47.1759 58.718C47.9579 58.718 48.6266 58.888 49.1819 59.228C49.7486 59.568 50.1792 60.0497 50.4739 60.673C50.7799 61.285 50.9329 62.0047 50.9329 62.832V63.733H44.6939C44.7166 64.7643 44.9772 65.552 45.4759 66.096C45.9859 66.6287 46.6942 66.895 47.6009 66.895C48.1789 66.895 48.6889 66.844 49.1309 66.742C49.5842 66.6287 50.0489 66.47 50.5249 66.266V67.575C50.0602 67.779 49.6012 67.9263 49.1479 68.017C48.6946 68.119 48.1562 68.17 47.5329 68.17C46.6716 68.17 45.9066 67.9943 45.2379 67.643C44.5806 67.2917 44.0649 66.7703 43.6909 66.079C43.3282 65.3763 43.1469 64.5207 43.1469 63.512C43.1469 62.5147 43.3112 61.659 43.6399 60.945C43.9799 60.231 44.4502 59.6813 45.0509 59.296C45.6629 58.9107 46.3712 58.718 47.1759 58.718ZM47.1589 59.942C46.4449 59.942 45.8782 60.1743 45.4589 60.639C45.0509 61.0923 44.8072 61.727 44.7279 62.543H49.3689C49.3689 62.0217 49.2896 61.5683 49.1309 61.183C48.9722 60.7977 48.7286 60.4973 48.3999 60.282C48.0826 60.0553 47.6689 59.942 47.1589 59.942ZM65.6116 58.888V68H53.2526V58.888H54.7486V66.742H58.6756V58.888H60.1716V66.742H64.1156V58.888H65.6116ZM70.0221 58.888V62.679H74.9691V58.888H76.4651V68H74.9691V63.937H70.0221V68H68.5261V58.888H70.0221ZM87.2723 63.427C87.2723 64.1863 87.1703 64.8607 86.9663 65.45C86.7736 66.028 86.4903 66.521 86.1163 66.929C85.7536 67.337 85.3059 67.6487 84.7733 67.864C84.2519 68.068 83.6683 68.17 83.0223 68.17C82.4216 68.17 81.8663 68.068 81.3563 67.864C80.8463 67.6487 80.4043 67.337 80.0303 66.929C79.6563 66.521 79.3616 66.028 79.1463 65.45C78.9423 64.8607 78.8403 64.1863 78.8403 63.427C78.8403 62.4183 79.0103 61.5683 79.3503 60.877C79.6903 60.1743 80.1776 59.6417 80.8123 59.279C81.4469 58.905 82.2006 58.718 83.0733 58.718C83.9006 58.718 84.6259 58.905 85.2493 59.279C85.8839 59.6417 86.3769 60.1743 86.7283 60.877C87.0909 61.5683 87.2723 62.4183 87.2723 63.427ZM80.3873 63.427C80.3873 64.141 80.4779 64.7643 80.6593 65.297C80.8519 65.8183 81.1466 66.2207 81.5433 66.504C81.9399 66.7873 82.4443 66.929 83.0563 66.929C83.6683 66.929 84.1726 66.7873 84.5693 66.504C84.9659 66.2207 85.2549 65.8183 85.4363 65.297C85.6289 64.7643 85.7253 64.141 85.7253 63.427C85.7253 62.7017 85.6289 62.084 85.4363 61.574C85.2436 61.064 84.9489 60.673 84.5523 60.401C84.1669 60.1177 83.6626 59.976 83.0393 59.976C82.1099 59.976 81.4356 60.282 81.0163 60.894C80.5969 61.506 80.3873 62.3503 80.3873 63.427ZM99.4182 58.888V68H98.0752V62.186C98.0752 61.948 98.0809 61.6987 98.0922 61.438C98.1149 61.1773 98.1376 60.9223 98.1602 60.673H98.1092L95.1342 68H93.8762L90.9862 60.673H90.9352C90.9579 60.9223 90.9692 61.1773 90.9692 61.438C90.9806 61.6987 90.9862 61.965 90.9862 62.237V68H89.6432V58.888H91.6322L94.5052 66.215L97.4292 58.888H99.4182ZM114.826 58.888V68H113.33V60.163H108.621V68H107.125V58.888H114.826ZM122.068 58.718C123.19 58.718 124.091 59.109 124.771 59.891C125.462 60.673 125.808 61.8517 125.808 63.427C125.808 64.4583 125.649 65.331 125.332 66.045C125.026 66.7477 124.59 67.2803 124.023 67.643C123.468 67.9943 122.81 68.17 122.051 68.17C121.586 68.17 121.173 68.1077 120.81 67.983C120.447 67.8583 120.136 67.6997 119.875 67.507C119.626 67.303 119.41 67.082 119.229 66.844H119.127C119.15 67.0367 119.172 67.2803 119.195 67.575C119.218 67.8697 119.229 68.1247 119.229 68.34V72.08H117.733V58.888H118.957L119.161 60.129H119.229C119.41 59.8683 119.626 59.6303 119.875 59.415C120.136 59.1997 120.442 59.0297 120.793 58.905C121.156 58.7803 121.581 58.718 122.068 58.718ZM121.796 59.976C121.184 59.976 120.691 60.095 120.317 60.333C119.943 60.5597 119.671 60.9053 119.501 61.37C119.331 61.8347 119.24 62.424 119.229 63.138V63.427C119.229 64.175 119.308 64.8097 119.467 65.331C119.626 65.8523 119.892 66.249 120.266 66.521C120.651 66.793 121.173 66.929 121.83 66.929C122.385 66.929 122.839 66.776 123.19 66.47C123.553 66.164 123.819 65.7503 123.989 65.229C124.17 64.6963 124.261 64.09 124.261 63.41C124.261 62.3673 124.057 61.5343 123.649 60.911C123.252 60.2877 122.635 59.976 121.796 59.976ZM136.114 63.427C136.114 64.1863 136.012 64.8607 135.808 65.45C135.615 66.028 135.332 66.521 134.958 66.929C134.595 67.337 134.148 67.6487 133.615 67.864C133.094 68.068 132.51 68.17 131.864 68.17C131.263 68.17 130.708 68.068 130.198 67.864C129.688 67.6487 129.246 67.337 128.872 66.929C128.498 66.521 128.203 66.028 127.988 65.45C127.784 64.8607 127.682 64.1863 127.682 63.427C127.682 62.4183 127.852 61.5683 128.192 60.877C128.532 60.1743 129.019 59.6417 129.654 59.279C130.289 58.905 131.042 58.718 131.915 58.718C132.742 58.718 133.468 58.905 134.091 59.279C134.726 59.6417 135.219 60.1743 135.57 60.877C135.933 61.5683 136.114 62.4183 136.114 63.427ZM129.229 63.427C129.229 64.141 129.32 64.7643 129.501 65.297C129.694 65.8183 129.988 66.2207 130.385 66.504C130.782 66.7873 131.286 66.929 131.898 66.929C132.51 66.929 133.014 66.7873 133.411 66.504C133.808 66.2207 134.097 65.8183 134.278 65.297C134.471 64.7643 134.567 64.141 134.567 63.427C134.567 62.7017 134.471 62.084 134.278 61.574C134.085 61.064 133.791 60.673 133.394 60.401C133.009 60.1177 132.504 59.976 131.881 59.976C130.952 59.976 130.277 60.282 129.858 60.894C129.439 61.506 129.229 62.3503 129.229 63.427ZM140.312 63.342L137.167 58.888H138.867L141.213 62.322L143.542 58.888H145.225L142.08 63.342L145.395 68H143.695L141.213 64.362L138.697 68H137.014L140.312 63.342ZM154.741 63.427C154.741 64.1863 154.639 64.8607 154.435 65.45C154.242 66.028 153.959 66.521 153.585 66.929C153.222 67.337 152.775 67.6487 152.242 67.864C151.721 68.068 151.137 68.17 150.491 68.17C149.89 68.17 149.335 68.068 148.825 67.864C148.315 67.6487 147.873 67.337 147.499 66.929C147.125 66.521 146.83 66.028 146.615 65.45C146.411 64.8607 146.309 64.1863 146.309 63.427C146.309 62.4183 146.479 61.5683 146.819 60.877C147.159 60.1743 147.646 59.6417 148.281 59.279C148.916 58.905 149.669 58.718 150.542 58.718C151.369 58.718 152.095 58.905 152.718 59.279C153.353 59.6417 153.846 60.1743 154.197 60.877C154.56 61.5683 154.741 62.4183 154.741 63.427ZM147.856 63.427C147.856 64.141 147.947 64.7643 148.128 65.297C148.321 65.8183 148.615 66.2207 149.012 66.504C149.409 66.7873 149.913 66.929 150.525 66.929C151.137 66.929 151.641 66.7873 152.038 66.504C152.435 66.2207 152.724 65.8183 152.905 65.297C153.098 64.7643 153.194 64.141 153.194 63.427C153.194 62.7017 153.098 62.084 152.905 61.574C152.712 61.064 152.418 60.673 152.021 60.401C151.636 60.1177 151.131 59.976 150.508 59.976C149.579 59.976 148.904 60.282 148.485 60.894C148.066 61.506 147.856 62.3503 147.856 63.427ZM167.711 58.888L163.954 63.308L168.034 68H166.334L162.39 63.376V68H160.996V63.376L157.052 68H155.352L159.432 63.308L155.675 58.888H157.307L160.996 63.308V58.888H162.39V63.308L166.096 58.888H167.711ZM176.296 58.888V66.742H177.622V71.162H176.177V68H169.836V71.162H168.408V66.742H169.139C169.66 66.0167 170.091 65.229 170.431 64.379C170.782 63.5177 171.043 62.6223 171.213 61.693C171.394 60.7523 171.491 59.8173 171.502 58.888H176.296ZM172.828 60.061C172.783 60.8317 172.664 61.6307 172.471 62.458C172.278 63.274 172.029 64.056 171.723 64.804C171.428 65.552 171.083 66.198 170.686 66.742H174.851V60.061H172.828ZM182.927 58.718C183.709 58.718 184.378 58.888 184.933 59.228C185.5 59.568 185.93 60.0497 186.225 60.673C186.531 61.285 186.684 62.0047 186.684 62.832V63.733H180.445C180.468 64.7643 180.728 65.552 181.227 66.096C181.737 66.6287 182.445 66.895 183.352 66.895C183.93 66.895 184.44 66.844 184.882 66.742C185.335 66.6287 185.8 66.47 186.276 66.266V67.575C185.811 67.779 185.352 67.9263 184.899 68.017C184.446 68.119 183.907 68.17 183.284 68.17C182.423 68.17 181.658 67.9943 180.989 67.643C180.332 67.2917 179.816 66.7703 179.442 66.079C179.079 65.3763 178.898 64.5207 178.898 63.512C178.898 62.5147 179.062 61.659 179.391 60.945C179.731 60.231 180.201 59.6813 180.802 59.296C181.414 58.9107 182.122 58.718 182.927 58.718ZM182.91 59.942C182.196 59.942 181.629 60.1743 181.21 60.639C180.802 61.0923 180.558 61.727 180.479 62.543H185.12C185.12 62.0217 185.041 61.5683 184.882 61.183C184.723 60.7977 184.48 60.4973 184.151 60.282C183.834 60.0553 183.42 59.942 182.91 59.942ZM190.5 58.888V62.679H195.447V58.888H196.943V68H195.447V63.937H190.5V68H189.004V58.888H190.5ZM201.239 64.447C201.239 64.549 201.233 64.6963 201.222 64.889C201.222 65.0703 201.216 65.2687 201.205 65.484C201.193 65.688 201.182 65.8863 201.171 66.079C201.159 66.2603 201.148 66.4077 201.137 66.521L206.016 58.888H207.852V68H206.458V62.628C206.458 62.4467 206.458 62.2087 206.458 61.914C206.469 61.6193 206.48 61.3303 206.492 61.047C206.503 60.7523 206.514 60.5313 206.526 60.384L201.681 68H199.828V58.888H201.239V64.447ZM212.163 64.447C212.163 64.549 212.157 64.6963 212.146 64.889C212.146 65.0703 212.14 65.2687 212.129 65.484C212.117 65.688 212.106 65.8863 212.095 66.079C212.083 66.2603 212.072 66.4077 212.061 66.521L216.94 58.888H218.776V68H217.382V62.628C217.382 62.4467 217.382 62.2087 217.382 61.914C217.393 61.6193 217.404 61.3303 217.416 61.047C217.427 60.7523 217.438 60.5313 217.45 60.384L212.605 68H210.752V58.888H212.163V64.447ZM86.6663 82.427C86.6663 83.1863 86.5643 83.8607 86.3603 84.45C86.1677 85.028 85.8843 85.521 85.5103 85.929C85.1477 86.337 84.7 86.6487 84.1673 86.864C83.646 87.068 83.0623 87.17 82.4163 87.17C81.8157 87.17 81.2603 87.068 80.7503 86.864C80.2403 86.6487 79.7983 86.337 79.4243 85.929C79.0503 85.521 78.7556 85.028 78.5403 84.45C78.3363 83.8607 78.2343 83.1863 78.2343 82.427C78.2343 81.4183 78.4043 80.5683 78.7443 79.877C79.0843 79.1743 79.5716 78.6417 80.2063 78.279C80.841 77.905 81.5947 77.718 82.4673 77.718C83.2946 77.718 84.02 77.905 84.6433 78.279C85.278 78.6417 85.771 79.1743 86.1223 79.877C86.485 80.5683 86.6663 81.4183 86.6663 82.427ZM79.7813 82.427C79.7813 83.141 79.872 83.7643 80.0533 84.297C80.246 84.8183 80.5406 85.2207 80.9373 85.504C81.334 85.7873 81.8383 85.929 82.4503 85.929C83.0623 85.929 83.5667 85.7873 83.9633 85.504C84.36 85.2207 84.649 84.8183 84.8303 84.297C85.023 83.7643 85.1193 83.141 85.1193 82.427C85.1193 81.7017 85.023 81.084 84.8303 80.574C84.6377 80.064 84.343 79.673 83.9463 79.401C83.561 79.1177 83.0567 78.976 82.4333 78.976C81.504 78.976 80.8296 79.282 80.4103 79.894C79.991 80.506 79.7813 81.3503 79.7813 82.427ZM88.5613 81.526C88.5613 80.2 88.6916 79.0723 88.9523 78.143C89.2243 77.2023 89.638 76.4543 90.1933 75.899C90.76 75.3323 91.4853 74.9527 92.3693 74.76C93.106 74.6013 93.8256 74.4597 94.5283 74.335C95.231 74.2103 95.8883 74.097 96.5003 73.995L96.7553 75.304C96.4606 75.3493 96.132 75.406 95.7693 75.474C95.4066 75.5307 95.0383 75.593 94.6643 75.661C94.2903 75.7177 93.9276 75.78 93.5763 75.848C93.2363 75.9047 92.936 75.9613 92.6753 76.018C92.3013 76.0973 91.967 76.2333 91.6723 76.426C91.3776 76.6073 91.1226 76.8567 90.9073 77.174C90.7033 77.4913 90.539 77.8823 90.4143 78.347C90.2896 78.8117 90.216 79.3613 90.1933 79.996H90.2953C90.454 79.7807 90.6693 79.5597 90.9413 79.333C91.2246 79.1063 91.559 78.9137 91.9443 78.755C92.341 78.5963 92.7886 78.517 93.2873 78.517C94.0806 78.517 94.738 78.6927 95.2593 79.044C95.792 79.384 96.1886 79.86 96.4493 80.472C96.7213 81.084 96.8573 81.798 96.8573 82.614C96.8573 83.6227 96.6816 84.467 96.3303 85.147C95.979 85.827 95.4916 86.337 94.8683 86.677C94.245 87.0057 93.5196 87.17 92.6923 87.17C92.069 87.17 91.5023 87.051 90.9923 86.813C90.4823 86.5637 90.046 86.201 89.6833 85.725C89.3206 85.249 89.043 84.6597 88.8503 83.957C88.6576 83.2543 88.5613 82.444 88.5613 81.526ZM92.8113 85.929C93.31 85.929 93.7406 85.827 94.1033 85.623C94.4773 85.419 94.7663 85.0847 94.9703 84.62C95.1743 84.1553 95.2763 83.5377 95.2763 82.767C95.2763 81.8377 95.1006 81.1067 94.7493 80.574C94.4093 80.03 93.8426 79.758 93.0493 79.758C92.5506 79.758 92.0973 79.8713 91.6893 80.098C91.2813 80.3133 90.9413 80.5627 90.6693 80.846C90.3973 81.1293 90.2046 81.3673 90.0913 81.56C90.0913 82.1153 90.131 82.6537 90.2103 83.175C90.2896 83.6963 90.4256 84.1667 90.6183 84.586C90.8223 84.994 91.1 85.3227 91.4513 85.572C91.814 85.81 92.2673 85.929 92.8113 85.929ZM97.786 77.888H99.384L101.356 83.073C101.469 83.379 101.571 83.6737 101.662 83.957C101.764 84.2403 101.855 84.518 101.934 84.79C102.013 85.0507 102.076 85.3057 102.121 85.555H102.189C102.257 85.2717 102.365 84.9033 102.512 84.45C102.659 83.9853 102.812 83.5207 102.971 83.056L104.824 77.888H106.439L102.512 88.258C102.297 88.8247 102.042 89.3177 101.747 89.737C101.464 90.1677 101.112 90.4963 100.693 90.723C100.285 90.961 99.7864 91.08 99.197 91.08C98.925 91.08 98.687 91.063 98.483 91.029C98.279 91.0063 98.1034 90.978 97.956 90.944V89.754C98.0807 89.7767 98.228 89.7993 98.398 89.822C98.5794 89.8447 98.7664 89.856 98.959 89.856C99.3104 89.856 99.6107 89.788 99.86 89.652C100.121 89.5273 100.342 89.3403 100.523 89.091C100.704 88.853 100.857 88.5697 100.982 88.241L101.458 87.034L97.786 77.888ZM109.189 81.203C109.189 81.7357 109.336 82.1323 109.631 82.393C109.937 82.6423 110.373 82.767 110.94 82.767C111.507 82.767 112.022 82.682 112.487 82.512C112.952 82.3307 113.428 82.0927 113.915 81.798V77.888H115.411V87H113.915V82.937C113.405 83.2657 112.901 83.5263 112.402 83.719C111.915 83.9003 111.325 83.991 110.634 83.991C109.705 83.991 108.979 83.7473 108.458 83.26C107.948 82.7727 107.693 82.121 107.693 81.305V77.888H109.189V81.203ZM121.825 77.718C122.607 77.718 123.276 77.888 123.831 78.228C124.398 78.568 124.828 79.0497 125.123 79.673C125.429 80.285 125.582 81.0047 125.582 81.832V82.733H119.343C119.366 83.7643 119.626 84.552 120.125 85.096C120.635 85.6287 121.343 85.895 122.25 85.895C122.828 85.895 123.338 85.844 123.78 85.742C124.233 85.6287 124.698 85.47 125.174 85.266V86.575C124.709 86.779 124.25 86.9263 123.797 87.017C123.344 87.119 122.805 87.17 122.182 87.17C121.321 87.17 120.556 86.9943 119.887 86.643C119.23 86.2917 118.714 85.7703 118.34 85.079C117.977 84.3763 117.796 83.5207 117.796 82.512C117.796 81.5147 117.96 80.659 118.289 79.945C118.629 79.231 119.099 78.6813 119.7 78.296C120.312 77.9107 121.02 77.718 121.825 77.718ZM121.808 78.942C121.094 78.942 120.527 79.1743 120.108 79.639C119.7 80.0923 119.456 80.727 119.377 81.543H124.018C124.018 81.0217 123.939 80.5683 123.78 80.183C123.621 79.7977 123.378 79.4973 123.049 79.282C122.732 79.0553 122.318 78.942 121.808 78.942ZM129.398 77.888V81.679H134.345V77.888H135.841V87H134.345V82.937H129.398V87H127.902V77.888H129.398ZM140.137 83.447C140.137 83.549 140.131 83.6963 140.12 83.889C140.12 84.0703 140.114 84.2687 140.103 84.484C140.091 84.688 140.08 84.8863 140.069 85.079C140.057 85.2603 140.046 85.4077 140.035 85.521L144.914 77.888H146.75V87H145.356V81.628C145.356 81.4467 145.356 81.2087 145.356 80.914C145.367 80.6193 145.378 80.3303 145.39 80.047C145.401 79.7523 145.412 79.5313 145.424 79.384L140.579 87H138.726V77.888H140.137V83.447ZM150.211 87H148.477L151.078 83.175C150.726 83.0843 150.386 82.9427 150.058 82.75C149.729 82.546 149.463 82.2683 149.259 81.917C149.055 81.5543 148.953 81.1067 148.953 80.574C148.953 79.7013 149.247 79.0383 149.837 78.585C150.426 78.1203 151.208 77.888 152.183 77.888H156.263V87H154.767V83.379H152.557L150.211 87ZM150.398 80.591C150.398 81.1123 150.59 81.5033 150.976 81.764C151.372 82.0133 151.922 82.138 152.625 82.138H154.767V79.129H152.336C151.644 79.129 151.146 79.265 150.84 79.537C150.545 79.809 150.398 80.1603 150.398 80.591Z" fill="white"/>
    <g filter="url(#filter1_d_48_1614)">
        <rect x="84.2549" y="116.5" width="71.6259" height="71.6259" rx="16" fill="url(#paint0_linear_48_1614)"/>
    </g>
    <mask id="mask0_48_1614" style="mask-type:alpha" maskUnits="userSpaceOnUse" x="95" y="127" width="52" height="52">
        <path d="M110.166 131.333H108C101.5 131.333 99.333 135.212 99.333 140V172.5C99.333 174.298 101.37 175.317 102.8 174.233L106.505 171.46C107.371 170.81 108.585 170.897 109.365 171.677L112.961 175.295C113.806 176.14 115.193 176.14 116.038 175.295L119.678 171.655C120.436 170.897 121.65 170.81 122.495 171.46L126.2 174.233C127.63 175.295 129.666 174.277 129.666 172.5V135.667C129.666 133.283 131.616 131.333 134 131.333H110.166ZM107.935 157.355C106.743 157.355 105.768 156.38 105.768 155.188C105.768 153.997 106.743 153.022 107.935 153.022C109.126 153.022 110.101 153.997 110.101 155.188C110.101 156.38 109.126 157.355 107.935 157.355ZM107.935 148.688C106.743 148.688 105.768 147.713 105.768 146.522C105.768 145.33 106.743 144.355 107.935 144.355C109.126 144.355 110.101 145.33 110.101 146.522C110.101 147.713 109.126 148.688 107.935 148.688ZM121 156.813H114.5C113.611 156.813 112.875 156.077 112.875 155.188C112.875 154.3 113.611 153.563 114.5 153.563H121C121.888 153.563 122.625 154.3 122.625 155.188C122.625 156.077 121.888 156.813 121 156.813ZM121 148.147H114.5C113.611 148.147 112.875 147.41 112.875 146.522C112.875 145.633 113.611 144.897 114.5 144.897H121C121.888 144.897 122.625 145.633 122.625 146.522C122.625 147.41 121.888 148.147 121 148.147Z" fill="black"/>
        <path d="M134.022 134.583C135.452 134.583 136.817 135.168 137.814 136.143C138.854 137.205 139.417 138.57 139.417 140V145.243C139.417 146.847 138.702 147.583 137.077 147.583H132.917V135.688C132.917 135.082 133.415 134.583 134.022 134.583ZM134.022 131.333C131.617 131.333 129.667 133.283 129.667 135.688V150.833H137.077C140.5 150.833 142.667 148.667 142.667 145.243V140C142.667 137.617 141.692 135.45 140.132 133.868C138.505 132.257 136.312 131.348 134.022 131.333Z" fill="black"/>
    </mask>
    <g mask="url(#mask0_48_1614)">
        <rect x="91.8242" y="96.4649" width="93.3556" height="109.134" fill="url(#paint1_linear_48_1614)"/>
    </g>
    <g filter="url(#filter2_f_48_1614)">
        <rect x="100.111" y="121.421" width="39.3669" height="2.18705" fill="#CCCEFF"/>
    </g>
    <g filter="url(#filter3_f_48_1614)">
        <rect x="88.6289" y="171.176" width="39.3669" height="1.64029" transform="rotate(-90 88.6289 171.176)" fill="#CCCEFF"/>
    </g>
    <g filter="url(#filter4_f_48_1614)">
        <rect x="149.319" y="172.27" width="39.3669" height="3.28058" transform="rotate(-90 149.319 172.27)" fill="#CCCEFF"/>
    </g>
    <g filter="url(#filter5_f_48_1614)">
        <rect x="150.413" y="143.838" width="10.9353" height="1.09353" transform="rotate(-90 150.413 143.838)" fill="#CCCEFF"/>
    </g>
    <defs>
        <filter id="filter0_bd_48_1614" x="-7" y="-11" width="255" height="255" filterUnits="userSpaceOnUse" color-interpolation-filters="sRGB">
            <feFlood flood-opacity="0" result="BackgroundImageFix"/>
            <feGaussianBlur in="BackgroundImageFix" stdDeviation="5.5"/>
            <feComposite in2="SourceAlpha" operator="in" result="effect1_backgroundBlur_48_1614"/>
            <feColorMatrix in="SourceAlpha" type="matrix" values="0 0 0 0 0 0 0 0 0 0 0 0 0 0 0 0 0 0 127 0" result="hardAlpha"/>
            <feOffset dy="4"/>
            <feGaussianBlur stdDeviation="2"/>
            <feComposite in2="hardAlpha" operator="out"/>
            <feColorMatrix type="matrix" values="0 0 0 0 0 0 0 0 0 0 0 0 0 0 0 0 0 0 0.25 0"/>
            <feBlend mode="normal" in2="effect1_backgroundBlur_48_1614" result="effect2_dropShadow_48_1614"/>
            <feBlend mode="normal" in="SourceGraphic" in2="effect2_dropShadow_48_1614" result="shape"/>
        </filter>
        <filter id="filter1_d_48_1614" x="78.2549" y="110.5" width="85.626" height="85.6259" filterUnits="userSpaceOnUse" color-interpolation-filters="sRGB">
            <feFlood flood-opacity="0" result="BackgroundImageFix"/>
            <feColorMatrix in="SourceAlpha" type="matrix" values="0 0 0 0 0 0 0 0 0 0 0 0 0 0 0 0 0 0 127 0" result="hardAlpha"/>
            <feMorphology radius="3" operator="erode" in="SourceAlpha" result="effect1_dropShadow_48_1614"/>
            <feOffset dx="1" dy="1"/>
            <feGaussianBlur stdDeviation="5"/>
            <feComposite in2="hardAlpha" operator="out"/>
            <feColorMatrix type="matrix" values="0 0 0 0 0.960784 0 0 0 0 0.298039 0 0 0 0 0.298039 0 0 0 1 0"/>
            <feBlend mode="normal" in2="BackgroundImageFix" result="effect1_dropShadow_48_1614"/>
            <feBlend mode="normal" in="SourceGraphic" in2="effect1_dropShadow_48_1614" result="shape"/>
        </filter>
        <filter id="filter2_f_48_1614" x="68.1113" y="89.4209" width="103.367" height="66.187" filterUnits="userSpaceOnUse" color-interpolation-filters="sRGB">
            <feFlood flood-opacity="0" result="BackgroundImageFix"/>
            <feBlend mode="normal" in="SourceGraphic" in2="BackgroundImageFix" result="shape"/>
            <feGaussianBlur stdDeviation="16" result="effect1_foregroundBlur_48_1614"/>
        </filter>
        <filter id="filter3_f_48_1614" x="56.6289" y="99.8094" width="65.6406" height="103.367" filterUnits="userSpaceOnUse" color-interpolation-filters="sRGB">
            <feFlood flood-opacity="0" result="BackgroundImageFix"/>
            <feBlend mode="normal" in="SourceGraphic" in2="BackgroundImageFix" result="shape"/>
            <feGaussianBlur stdDeviation="16" result="effect1_foregroundBlur_48_1614"/>
        </filter>
        <filter id="filter4_f_48_1614" x="117.319" y="100.903" width="67.2803" height="103.367" filterUnits="userSpaceOnUse" color-interpolation-filters="sRGB">
            <feFlood flood-opacity="0" result="BackgroundImageFix"/>
            <feBlend mode="normal" in="SourceGraphic" in2="BackgroundImageFix" result="shape"/>
            <feGaussianBlur stdDeviation="16" result="effect1_foregroundBlur_48_1614"/>
        </filter>
        <filter id="filter5_f_48_1614" x="136.413" y="118.903" width="29.0938" height="38.9352" filterUnits="userSpaceOnUse" color-interpolation-filters="sRGB">
            <feFlood flood-opacity="0" result="BackgroundImageFix"/>
            <feBlend mode="normal" in="SourceGraphic" in2="BackgroundImageFix" result="shape"/>
            <feGaussianBlur stdDeviation="7" result="effect1_foregroundBlur_48_1614"/>
        </filter>
        <linearGradient id="paint0_linear_48_1614" x1="120.068" y1="116.5" x2="120.068" y2="188.126" gradientUnits="userSpaceOnUse">
            <stop stop-color="#FE4B4B"/>
            <stop offset="1" stop-color="#B82815"/>
        </linearGradient>
        <linearGradient id="paint1_linear_48_1614" x1="138.502" y1="96.4649" x2="138.502" y2="205.599" gradientUnits="userSpaceOnUse">
            <stop stop-color="white"/>
            <stop offset="0.484375" stop-color="#E2D8DC"/>
            <stop offset="0.734375" stop-color="#E9EAF2"/>
            <stop offset="1" stop-color="#C4C3F9"/>
        </linearGradient>
    </defs>
</svg>
