<svg width="241" height="241" viewBox="0 0 241 241" fill="none" xmlns="http://www.w3.org/2000/svg">
    <g filter="url(#filter0_bd_48_1577)">
        <rect x="4" width="233" height="233" rx="17" fill="black" fill-opacity="0.3" shape-rendering="crispEdges"/>
    </g>
    <path d="M66.9259 68V55.862H76.0379V68H74.5249V57.205H68.4559V68H66.9259ZM83.4914 58.718C84.6134 58.718 85.5144 59.109 86.1944 59.891C86.8858 60.673 87.2314 61.8517 87.2314 63.427C87.2314 64.4583 87.0728 65.331 86.7554 66.045C86.4494 66.7477 86.0131 67.2803 85.4464 67.643C84.8911 67.9943 84.2338 68.17 83.4744 68.17C83.0098 68.17 82.5961 68.1077 82.2334 67.983C81.8708 67.8583 81.5591 67.6997 81.2984 67.507C81.0491 67.303 80.8338 67.082 80.6524 66.844H80.5504C80.5731 67.0367 80.5958 67.2803 80.6184 67.575C80.6411 67.8697 80.6524 68.1247 80.6524 68.34V72.08H79.1564V58.888H80.3804L80.5844 60.129H80.6524C80.8338 59.8683 81.0491 59.6303 81.2984 59.415C81.5591 59.1997 81.8651 59.0297 82.2164 58.905C82.5791 58.7803 83.0041 58.718 83.4914 58.718ZM83.2194 59.976C82.6074 59.976 82.1144 60.095 81.7404 60.333C81.3664 60.5597 81.0944 60.9053 80.9244 61.37C80.7544 61.8347 80.6638 62.424 80.6524 63.138V63.427C80.6524 64.175 80.7318 64.8097 80.8904 65.331C81.0491 65.8523 81.3154 66.249 81.6894 66.521C82.0748 66.793 82.5961 66.929 83.2534 66.929C83.8088 66.929 84.2621 66.776 84.6134 66.47C84.9761 66.164 85.2424 65.7503 85.4124 65.229C85.5938 64.6963 85.6844 64.09 85.6844 63.41C85.6844 62.3673 85.4804 61.5343 85.0724 60.911C84.6758 60.2877 84.0581 59.976 83.2194 59.976ZM93.1344 58.718C93.9164 58.718 94.5851 58.888 95.1404 59.228C95.7071 59.568 96.1377 60.0497 96.4324 60.673C96.7384 61.285 96.8914 62.0047 96.8914 62.832V63.733H90.6524C90.6751 64.7643 90.9357 65.552 91.4344 66.096C91.9444 66.6287 92.6527 66.895 93.5594 66.895C94.1374 66.895 94.6474 66.844 95.0894 66.742C95.5427 66.6287 96.0074 66.47 96.4834 66.266V67.575C96.0187 67.779 95.5597 67.9263 95.1064 68.017C94.6531 68.119 94.1147 68.17 93.4914 68.17C92.6301 68.17 91.8651 67.9943 91.1964 67.643C90.5391 67.2917 90.0234 66.7703 89.6494 66.079C89.2867 65.3763 89.1054 64.5207 89.1054 63.512C89.1054 62.5147 89.2697 61.659 89.5984 60.945C89.9384 60.231 90.4087 59.6813 91.0094 59.296C91.6214 58.9107 92.3297 58.718 93.1344 58.718ZM93.1174 59.942C92.4034 59.942 91.8367 60.1743 91.4174 60.639C91.0094 61.0923 90.7657 61.727 90.6864 62.543H95.3274C95.3274 62.0217 95.2481 61.5683 95.0894 61.183C94.9307 60.7977 94.6871 60.4973 94.3584 60.282C94.0411 60.0553 93.6274 59.942 93.1174 59.942ZM101.608 58.718C102.299 58.718 102.9 58.8143 103.41 59.007C103.92 59.1883 104.317 59.4603 104.6 59.823C104.883 60.1743 105.025 60.605 105.025 61.115C105.025 61.6703 104.872 62.1123 104.566 62.441C104.26 62.7583 103.841 62.9907 103.308 63.138V63.206C103.671 63.308 104.005 63.4497 104.311 63.631C104.617 63.8123 104.861 64.0503 105.042 64.345C105.235 64.6397 105.331 65.0193 105.331 65.484C105.331 65.9827 105.189 66.436 104.906 66.844C104.634 67.252 104.209 67.575 103.631 67.813C103.064 68.051 102.333 68.17 101.438 68.17C101.007 68.17 100.594 68.1473 100.197 68.102C99.8118 68.0567 99.4604 67.9887 99.1431 67.898C98.8371 67.8073 98.5651 67.6997 98.3271 67.575V66.232C98.7124 66.4133 99.1658 66.5777 99.6871 66.725C100.22 66.8723 100.798 66.946 101.421 66.946C101.874 66.946 102.282 66.895 102.645 66.793C103.019 66.691 103.314 66.5323 103.529 66.317C103.744 66.0903 103.852 65.7843 103.852 65.399C103.852 65.0477 103.756 64.7643 103.563 64.549C103.37 64.3223 103.081 64.1523 102.696 64.039C102.322 63.9257 101.84 63.869 101.251 63.869H100.027V62.645H101.013C101.795 62.645 102.418 62.543 102.883 62.339C103.359 62.1237 103.597 61.761 103.597 61.251C103.597 60.8203 103.416 60.4973 103.053 60.282C102.702 60.0667 102.192 59.959 101.523 59.959C101.024 59.959 100.582 60.01 100.197 60.112C99.8231 60.2027 99.4094 60.3443 98.9561 60.537L98.4291 59.347C98.9164 59.1317 99.4264 58.973 99.9591 58.871C100.492 58.769 101.041 58.718 101.608 58.718ZM111.064 58.718C111.846 58.718 112.515 58.888 113.07 59.228C113.637 59.568 114.067 60.0497 114.362 60.673C114.668 61.285 114.821 62.0047 114.821 62.832V63.733H108.582C108.605 64.7643 108.865 65.552 109.364 66.096C109.874 66.6287 110.582 66.895 111.489 66.895C112.067 66.895 112.577 66.844 113.019 66.742C113.472 66.6287 113.937 66.47 114.413 66.266V67.575C113.948 67.779 113.489 67.9263 113.036 68.017C112.583 68.119 112.044 68.17 111.421 68.17C110.56 68.17 109.795 67.9943 109.126 67.643C108.469 67.2917 107.953 66.7703 107.579 66.079C107.216 65.3763 107.035 64.5207 107.035 63.512C107.035 62.5147 107.199 61.659 107.528 60.945C107.868 60.231 108.338 59.6813 108.939 59.296C109.551 58.9107 110.259 58.718 111.064 58.718ZM111.047 59.942C110.333 59.942 109.766 60.1743 109.347 60.639C108.939 61.0923 108.695 61.727 108.616 62.543H113.257C113.257 62.0217 113.178 61.5683 113.019 61.183C112.86 60.7977 112.617 60.4973 112.288 60.282C111.971 60.0553 111.557 59.942 111.047 59.942ZM118.637 58.888V62.679H123.584V58.888H125.08V68H123.584V63.937H118.637V68H117.141V58.888H118.637ZM134.255 60.146H131.28V68H129.801V60.146H126.86V58.888H134.255V60.146ZM139.501 58.735C140.612 58.735 141.433 58.9787 141.966 59.466C142.499 59.9533 142.765 60.7297 142.765 61.795V68H141.677L141.388 66.708H141.32C141.059 67.0367 140.787 67.3143 140.504 67.541C140.232 67.7563 139.915 67.915 139.552 68.017C139.201 68.119 138.77 68.17 138.26 68.17C137.716 68.17 137.223 68.0737 136.781 67.881C136.35 67.6883 136.01 67.3937 135.761 66.997C135.512 66.589 135.387 66.079 135.387 65.467C135.387 64.5603 135.744 63.8633 136.458 63.376C137.172 62.8773 138.271 62.6053 139.756 62.56L141.303 62.509V61.965C141.303 61.2057 141.139 60.6787 140.81 60.384C140.481 60.0893 140.017 59.942 139.416 59.942C138.94 59.942 138.487 60.0157 138.056 60.163C137.625 60.299 137.223 60.4577 136.849 60.639L136.39 59.517C136.787 59.3017 137.257 59.1203 137.801 58.973C138.345 58.8143 138.912 58.735 139.501 58.735ZM139.943 63.597C138.81 63.6423 138.022 63.8237 137.58 64.141C137.149 64.4583 136.934 64.906 136.934 65.484C136.934 65.994 137.087 66.368 137.393 66.606C137.71 66.844 138.113 66.963 138.6 66.963C139.371 66.963 140.011 66.7533 140.521 66.334C141.031 65.9033 141.286 65.246 141.286 64.362V63.546L139.943 63.597ZM154.572 71.162H153.11V68H145.579V58.888H147.075V66.742H151.784V58.888H153.28V66.759H154.572V71.162ZM157.731 64.447C157.731 64.549 157.726 64.6963 157.714 64.889C157.714 65.0703 157.709 65.2687 157.697 65.484C157.686 65.688 157.675 65.8863 157.663 66.079C157.652 66.2603 157.641 66.4077 157.629 66.521L162.508 58.888H164.344V68H162.95V62.628C162.95 62.4467 162.95 62.2087 162.95 61.914C162.962 61.6193 162.973 61.3303 162.984 61.047C162.996 60.7523 163.007 60.5313 163.018 60.384L158.173 68H156.32V58.888H157.731V64.447ZM168.655 64.447C168.655 64.549 168.65 64.6963 168.638 64.889C168.638 65.0703 168.633 65.2687 168.621 65.484C168.61 65.688 168.599 65.8863 168.587 66.079C168.576 66.2603 168.565 66.4077 168.553 66.521L173.432 58.888H175.268V68H173.874V62.628C173.874 62.4467 173.874 62.2087 173.874 61.914C173.886 61.6193 173.897 61.3303 173.908 61.047C173.92 60.7523 173.931 60.5313 173.942 60.384L169.097 68H167.244V58.888H168.655V64.447Z" fill="white"/>
    <g filter="url(#filter1_d_48_1577)">
        <rect x="84.2549" y="116.5" width="71.6259" height="71.6259" rx="16" fill="url(#paint0_linear_48_1577)"/>
    </g>
    <mask id="mask0_48_1577" style="mask-type:alpha" maskUnits="userSpaceOnUse" x="95" y="128" width="50" height="50">
        <path d="M134.063 156.958H130.217C129.805 156.958 129.401 157.081 129.059 157.31L124.354 160.458C123.604 160.958 122.729 161.188 121.875 161.188C121.146 161.188 120.417 161.021 119.75 160.646C118.746 160.115 118.009 159.14 117.646 158.048C117.357 157.173 116.779 156.36 115.946 155.967C115 155.525 114.138 154.923 113.396 154.188C111.604 152.396 110.625 149.875 110.625 147.063V138.417C110.625 137.864 110.406 137.334 110.015 136.944C109.624 136.553 109.095 136.333 108.542 136.333C102.917 136.333 99.167 139.146 99.167 145.708V156.958C99.167 163.521 102.917 166.333 108.542 166.333H116.354V172.271H110.417C109.563 172.271 108.854 172.979 108.854 173.833C108.854 174.688 109.563 175.396 110.417 175.396H125.417C126.271 175.396 126.979 174.688 126.979 173.833C126.979 172.979 126.271 172.271 125.417 172.271H119.479V166.333H127.292C132.282 166.333 135.796 164.119 136.527 159.038C136.69 157.898 135.736 156.958 134.584 156.958H134.063Z" fill="black"/>
        <path d="M134.063 132.167H120.521C117.417 132.167 115.083 133.75 114.167 136.333C113.896 137.125 113.75 138 113.75 138.937V147.062C113.75 149.083 114.417 150.792 115.604 151.979C116.792 153.167 118.5 153.833 120.521 153.833V156.729C120.521 157.792 121.729 158.437 122.625 157.854L128.646 153.833H134.063C135 153.833 135.875 153.687 136.667 153.417C139.25 152.5 140.833 150.167 140.833 147.062V138.937C140.833 134.875 138.125 132.167 134.063 132.167ZM121.292 144.667C120.877 144.667 120.48 144.502 120.187 144.209C119.894 143.916 119.729 143.519 119.729 143.104C119.729 142.69 119.894 142.292 120.187 141.999C120.48 141.706 120.877 141.542 121.292 141.542C121.706 141.542 122.103 141.706 122.397 141.999C122.69 142.292 122.854 142.69 122.854 143.104C122.854 143.519 122.69 143.916 122.397 144.209C122.103 144.502 121.706 144.667 121.292 144.667ZM127.167 144.667C126.962 144.667 126.759 144.627 126.569 144.549C126.38 144.471 126.208 144.356 126.063 144.211C125.918 144.066 125.802 143.895 125.724 143.705C125.645 143.516 125.604 143.313 125.604 143.108C125.604 142.903 125.644 142.7 125.722 142.511C125.8 142.322 125.915 142.149 126.06 142.004C126.204 141.859 126.376 141.744 126.566 141.665C126.755 141.587 126.958 141.546 127.163 141.546C127.576 141.545 127.973 141.709 128.266 142.001C128.56 142.294 128.724 142.69 128.725 143.104C128.726 143.518 128.562 143.915 128.269 144.208C127.977 144.501 127.581 144.666 127.167 144.667ZM133.021 144.667C132.816 144.667 132.613 144.627 132.424 144.549C132.234 144.471 132.062 144.356 131.917 144.211C131.772 144.066 131.657 143.895 131.578 143.705C131.499 143.516 131.459 143.313 131.458 143.108C131.458 142.903 131.498 142.7 131.576 142.511C131.654 142.322 131.769 142.149 131.914 142.004C132.059 141.859 132.23 141.744 132.42 141.665C132.609 141.587 132.812 141.546 133.017 141.546C133.431 141.545 133.828 141.709 134.121 142.001C134.414 142.294 134.579 142.69 134.579 143.104C134.58 143.518 134.416 143.915 134.124 144.208C133.831 144.501 133.435 144.666 133.021 144.667Z" fill="black"/>
        <path d="M140.833 138.937V147.062C140.833 150.167 139.25 152.5 136.667 153.417C135.875 153.687 135 153.833 134.063 153.833H128.646L122.625 157.854C121.729 158.437 120.521 157.792 120.521 156.729V153.833C118.5 153.833 116.792 153.167 115.604 151.979C114.417 150.792 113.75 149.083 113.75 147.062V138.937C113.75 138 113.896 137.125 114.167 136.333C115.083 133.75 117.417 132.167 120.521 132.167H134.063C138.125 132.167 140.833 134.875 140.833 138.937Z" fill="black"/>
    </mask>
    <g mask="url(#mask0_48_1577)">
        <rect x="99.5342" y="128.907" width="43.0872" height="50.3695" fill="url(#paint1_linear_48_1577)"/>
    </g>
    <g filter="url(#filter2_f_48_1577)">
        <rect x="100.111" y="121.421" width="39.3669" height="2.18705" fill="#CCCEFF"/>
    </g>
    <g filter="url(#filter3_f_48_1577)">
        <rect x="88.6289" y="171.176" width="39.3669" height="1.64029" transform="rotate(-90 88.6289 171.176)" fill="#CCCEFF"/>
    </g>
    <g filter="url(#filter4_f_48_1577)">
        <rect x="149.319" y="172.27" width="39.3669" height="3.28058" transform="rotate(-90 149.319 172.27)" fill="#CCCEFF"/>
    </g>
    <g filter="url(#filter5_f_48_1577)">
        <rect x="150.413" y="143.838" width="10.9353" height="1.09353" transform="rotate(-90 150.413 143.838)" fill="#CCCEFF"/>
    </g>
    <defs>
        <filter id="filter0_bd_48_1577" x="-7" y="-11" width="255" height="255" filterUnits="userSpaceOnUse" color-interpolation-filters="sRGB">
            <feFlood flood-opacity="0" result="BackgroundImageFix"/>
            <feGaussianBlur in="BackgroundImageFix" stdDeviation="5.5"/>
            <feComposite in2="SourceAlpha" operator="in" result="effect1_backgroundBlur_48_1577"/>
            <feColorMatrix in="SourceAlpha" type="matrix" values="0 0 0 0 0 0 0 0 0 0 0 0 0 0 0 0 0 0 127 0" result="hardAlpha"/>
            <feOffset dy="4"/>
            <feGaussianBlur stdDeviation="2"/>
            <feComposite in2="hardAlpha" operator="out"/>
            <feColorMatrix type="matrix" values="0 0 0 0 0 0 0 0 0 0 0 0 0 0 0 0 0 0 0.25 0"/>
            <feBlend mode="normal" in2="effect1_backgroundBlur_48_1577" result="effect2_dropShadow_48_1577"/>
            <feBlend mode="normal" in="SourceGraphic" in2="effect2_dropShadow_48_1577" result="shape"/>
        </filter>
        <filter id="filter1_d_48_1577" x="78.2549" y="110.5" width="85.626" height="85.6259" filterUnits="userSpaceOnUse" color-interpolation-filters="sRGB">
            <feFlood flood-opacity="0" result="BackgroundImageFix"/>
            <feColorMatrix in="SourceAlpha" type="matrix" values="0 0 0 0 0 0 0 0 0 0 0 0 0 0 0 0 0 0 127 0" result="hardAlpha"/>
            <feMorphology radius="4" operator="erode" in="SourceAlpha" result="effect1_dropShadow_48_1577"/>
            <feOffset dx="1" dy="1"/>
            <feGaussianBlur stdDeviation="5.5"/>
            <feComposite in2="hardAlpha" operator="out"/>
            <feColorMatrix type="matrix" values="0 0 0 0 0.141176 0 0 0 0 0.756863 0 0 0 0 0.133333 0 0 0 1 0"/>
            <feBlend mode="normal" in2="BackgroundImageFix" result="effect1_dropShadow_48_1577"/>
            <feBlend mode="normal" in="SourceGraphic" in2="effect1_dropShadow_48_1577" result="shape"/>
        </filter>
        <filter id="filter2_f_48_1577" x="68.1113" y="89.4209" width="103.367" height="66.187" filterUnits="userSpaceOnUse" color-interpolation-filters="sRGB">
            <feFlood flood-opacity="0" result="BackgroundImageFix"/>
            <feBlend mode="normal" in="SourceGraphic" in2="BackgroundImageFix" result="shape"/>
            <feGaussianBlur stdDeviation="16" result="effect1_foregroundBlur_48_1577"/>
        </filter>
        <filter id="filter3_f_48_1577" x="56.6289" y="99.8093" width="65.6406" height="103.367" filterUnits="userSpaceOnUse" color-interpolation-filters="sRGB">
            <feFlood flood-opacity="0" result="BackgroundImageFix"/>
            <feBlend mode="normal" in="SourceGraphic" in2="BackgroundImageFix" result="shape"/>
            <feGaussianBlur stdDeviation="16" result="effect1_foregroundBlur_48_1577"/>
        </filter>
        <filter id="filter4_f_48_1577" x="117.319" y="100.903" width="67.2803" height="103.367" filterUnits="userSpaceOnUse" color-interpolation-filters="sRGB">
            <feFlood flood-opacity="0" result="BackgroundImageFix"/>
            <feBlend mode="normal" in="SourceGraphic" in2="BackgroundImageFix" result="shape"/>
            <feGaussianBlur stdDeviation="16" result="effect1_foregroundBlur_48_1577"/>
        </filter>
        <filter id="filter5_f_48_1577" x="136.413" y="118.903" width="29.0938" height="38.9353" filterUnits="userSpaceOnUse" color-interpolation-filters="sRGB">
            <feFlood flood-opacity="0" result="BackgroundImageFix"/>
            <feBlend mode="normal" in="SourceGraphic" in2="BackgroundImageFix" result="shape"/>
            <feGaussianBlur stdDeviation="7" result="effect1_foregroundBlur_48_1577"/>
        </filter>
        <linearGradient id="paint0_linear_48_1577" x1="120.068" y1="116.5" x2="120.068" y2="188.126" gradientUnits="userSpaceOnUse">
            <stop stop-color="#4FFE4B"/>
            <stop offset="1" stop-color="#18B815"/>
        </linearGradient>
        <linearGradient id="paint1_linear_48_1577" x1="121.078" y1="128.907" x2="121.078" y2="179.276" gradientUnits="userSpaceOnUse">
            <stop stop-color="white"/>
            <stop offset="0.484375" stop-color="#E2D8DC"/>
            <stop offset="0.734375" stop-color="#E9EAF2"/>
            <stop offset="1" stop-color="#C4C3F9"/>
        </linearGradient>
    </defs>
</svg>
