<svg width="241" height="241" viewBox="0 0 241 241" fill="none" xmlns="http://www.w3.org/2000/svg">
    <g filter="url(#filter0_bd_48_1596)">
        <rect x="4" width="233" height="233" rx="17" fill="black" fill-opacity="0.3" shape-rendering="crispEdges"/>
    </g>
    <path d="M21.2408 49V36.862H30.3528V49H28.8398V38.205H22.7708V49H21.2408ZM37.8064 39.718C38.9284 39.718 39.8294 40.109 40.5094 40.891C41.2007 41.673 41.5464 42.8517 41.5464 44.427C41.5464 45.4583 41.3877 46.331 41.0704 47.045C40.7644 47.7477 40.328 48.2803 39.7614 48.643C39.206 48.9943 38.5487 49.17 37.7894 49.17C37.3247 49.17 36.911 49.1077 36.5484 48.983C36.1857 48.8583 35.874 48.6997 35.6134 48.507C35.364 48.303 35.1487 48.082 34.9674 47.844H34.8654C34.888 48.0367 34.9107 48.2803 34.9334 48.575C34.956 48.8697 34.9674 49.1247 34.9674 49.34V53.08H33.4714V39.888H34.6954L34.8994 41.129H34.9674C35.1487 40.8683 35.364 40.6303 35.6134 40.415C35.874 40.1997 36.18 40.0297 36.5314 39.905C36.894 39.7803 37.319 39.718 37.8064 39.718ZM37.5344 40.976C36.9224 40.976 36.4294 41.095 36.0554 41.333C35.6814 41.5597 35.4094 41.9053 35.2394 42.37C35.0694 42.8347 34.9787 43.424 34.9674 44.138V44.427C34.9674 45.175 35.0467 45.8097 35.2054 46.331C35.364 46.8523 35.6304 47.249 36.0044 47.521C36.3897 47.793 36.911 47.929 37.5684 47.929C38.1237 47.929 38.577 47.776 38.9284 47.47C39.291 47.164 39.5574 46.7503 39.7274 46.229C39.9087 45.6963 39.9994 45.09 39.9994 44.41C39.9994 43.3673 39.7954 42.5343 39.3874 41.911C38.9907 41.2877 38.373 40.976 37.5344 40.976ZM47.3814 39.735C48.492 39.735 49.3137 39.9787 49.8464 40.466C50.379 40.9533 50.6454 41.7297 50.6454 42.795V49H49.5574L49.2684 47.708H49.2004C48.9397 48.0367 48.6677 48.3143 48.3844 48.541C48.1124 48.7563 47.795 48.915 47.4324 49.017C47.081 49.119 46.6504 49.17 46.1404 49.17C45.5964 49.17 45.1034 49.0737 44.6614 48.881C44.2307 48.6883 43.8907 48.3937 43.6414 47.997C43.392 47.589 43.2674 47.079 43.2674 46.467C43.2674 45.5603 43.6244 44.8633 44.3384 44.376C45.0524 43.8773 46.1517 43.6053 47.6364 43.56L49.1834 43.509V42.965C49.1834 42.2057 49.019 41.6787 48.6904 41.384C48.3617 41.0893 47.897 40.942 47.2964 40.942C46.8204 40.942 46.367 41.0157 45.9364 41.163C45.5057 41.299 45.1034 41.4577 44.7294 41.639L44.2704 40.517C44.667 40.3017 45.1374 40.1203 45.6814 39.973C46.2254 39.8143 46.792 39.735 47.3814 39.735ZM47.8234 44.597C46.69 44.6423 45.9024 44.8237 45.4604 45.141C45.0297 45.4583 44.8144 45.906 44.8144 46.484C44.8144 46.994 44.9674 47.368 45.2734 47.606C45.5907 47.844 45.993 47.963 46.4804 47.963C47.251 47.963 47.8914 47.7533 48.4014 47.334C48.9114 46.9033 49.1664 46.246 49.1664 45.362V44.546L47.8234 44.597ZM60.7866 42.183C60.7866 42.7497 60.6166 43.1917 60.2766 43.509C59.9366 43.8263 59.5003 44.0417 58.9676 44.155V44.223C59.5343 44.3023 60.0273 44.5063 60.4466 44.835C60.866 45.1523 61.0756 45.651 61.0756 46.331C61.0756 46.7163 61.002 47.0733 60.8546 47.402C60.7186 47.7307 60.5033 48.014 60.2086 48.252C59.914 48.49 59.5343 48.677 59.0696 48.813C58.605 48.9377 58.044 49 57.3866 49H53.4596V39.888H57.3696C58.0156 39.888 58.5936 39.9617 59.1036 40.109C59.625 40.245 60.033 40.483 60.3276 40.823C60.6336 41.1517 60.7866 41.605 60.7866 42.183ZM59.5286 46.331C59.5286 45.8097 59.3303 45.4357 58.9336 45.209C58.537 44.9823 57.9533 44.869 57.1826 44.869H54.9556V47.793H57.2166C57.9646 47.793 58.537 47.6853 58.9336 47.47C59.3303 47.2433 59.5286 46.8637 59.5286 46.331ZM59.2736 42.37C59.2736 41.9393 59.115 41.6277 58.7976 41.435C58.4916 41.231 57.9873 41.129 57.2846 41.129H54.9556V43.628H57.0126C57.7493 43.628 58.3103 43.526 58.6956 43.322C59.081 43.118 59.2736 42.8007 59.2736 42.37ZM71.1766 44.427C71.1766 45.1863 71.0746 45.8607 70.8706 46.45C70.6779 47.028 70.3946 47.521 70.0206 47.929C69.6579 48.337 69.2102 48.6487 68.6776 48.864C68.1562 49.068 67.5726 49.17 66.9266 49.17C66.3259 49.17 65.7706 49.068 65.2606 48.864C64.7506 48.6487 64.3086 48.337 63.9346 47.929C63.5606 47.521 63.2659 47.028 63.0506 46.45C62.8466 45.8607 62.7446 45.1863 62.7446 44.427C62.7446 43.4183 62.9146 42.5683 63.2546 41.877C63.5946 41.1743 64.0819 40.6417 64.7166 40.279C65.3512 39.905 66.1049 39.718 66.9776 39.718C67.8049 39.718 68.5302 39.905 69.1536 40.279C69.7882 40.6417 70.2812 41.1743 70.6326 41.877C70.9952 42.5683 71.1766 43.4183 71.1766 44.427ZM64.2916 44.427C64.2916 45.141 64.3822 45.7643 64.5636 46.297C64.7562 46.8183 65.0509 47.2207 65.4476 47.504C65.8442 47.7873 66.3486 47.929 66.9606 47.929C67.5726 47.929 68.0769 47.7873 68.4736 47.504C68.8702 47.2207 69.1592 46.8183 69.3406 46.297C69.5332 45.7643 69.6296 45.141 69.6296 44.427C69.6296 43.7017 69.5332 43.084 69.3406 42.574C69.1479 42.064 68.8532 41.673 68.4566 41.401C68.0712 41.1177 67.5669 40.976 66.9436 40.976C66.0142 40.976 65.3399 41.282 64.9206 41.894C64.5012 42.506 64.2916 43.3503 64.2916 44.427ZM79.8414 39.888V43.679H84.7884V39.888H86.2844V49H84.7884V44.937H79.8414V49H78.3454V39.888H79.8414ZM92.6206 39.735C93.7313 39.735 94.5529 39.9787 95.0856 40.466C95.6183 40.9533 95.8846 41.7297 95.8846 42.795V49H94.7966L94.5076 47.708H94.4396C94.1789 48.0367 93.9069 48.3143 93.6236 48.541C93.3516 48.7563 93.0343 48.915 92.6716 49.017C92.3203 49.119 91.8896 49.17 91.3796 49.17C90.8356 49.17 90.3426 49.0737 89.9006 48.881C89.4699 48.6883 89.1299 48.3937 88.8806 47.997C88.6313 47.589 88.5066 47.079 88.5066 46.467C88.5066 45.5603 88.8636 44.8633 89.5776 44.376C90.2916 43.8773 91.3909 43.6053 92.8756 43.56L94.4226 43.509V42.965C94.4226 42.2057 94.2583 41.6787 93.9296 41.384C93.6009 41.0893 93.1363 40.942 92.5356 40.942C92.0596 40.942 91.6063 41.0157 91.1756 41.163C90.7449 41.299 90.3426 41.4577 89.9686 41.639L89.5096 40.517C89.9063 40.3017 90.3766 40.1203 90.9206 39.973C91.4646 39.8143 92.0313 39.735 92.6206 39.735ZM93.0626 44.597C91.9293 44.6423 91.1416 44.8237 90.6996 45.141C90.2689 45.4583 90.0536 45.906 90.0536 46.484C90.0536 46.994 90.2066 47.368 90.5126 47.606C90.8299 47.844 91.2323 47.963 91.7196 47.963C92.4903 47.963 93.1306 47.7533 93.6406 47.334C94.1506 46.9033 94.4056 46.246 94.4056 45.362V44.546L93.0626 44.597ZM104.959 49.17C104.437 49.17 103.984 49.1247 103.599 49.034C103.225 48.9547 102.873 48.8357 102.545 48.677V47.385C102.885 47.521 103.253 47.64 103.65 47.742C104.046 47.844 104.494 47.895 104.993 47.895C105.582 47.895 106.092 47.793 106.523 47.589C106.953 47.3737 107.293 47.045 107.543 46.603C107.792 46.161 107.934 45.6 107.968 44.92H103.48V43.696H107.951C107.871 42.7667 107.605 42.0867 107.152 41.656C106.71 41.2253 106.058 41.01 105.197 41.01C104.868 41.01 104.505 41.0553 104.109 41.146C103.723 41.2367 103.378 41.3387 103.072 41.452L102.647 40.245C102.975 40.0977 103.366 39.973 103.82 39.871C104.273 39.769 104.726 39.718 105.18 39.718C106.03 39.718 106.778 39.8767 107.424 40.194C108.081 40.5113 108.591 41.0157 108.954 41.707C109.328 42.3983 109.515 43.3107 109.515 44.444C109.515 45.5207 109.316 46.4103 108.92 47.113C108.534 47.8157 107.996 48.337 107.305 48.677C106.625 49.0057 105.843 49.17 104.959 49.17ZM117.286 39.888H118.918L115.025 44.274L119.241 49H117.507L113.393 44.376V49H111.897V39.888H113.393V44.308L117.286 39.888ZM124.218 49.17C123.413 49.17 122.694 49.0057 122.059 48.677C121.436 48.3483 120.943 47.8383 120.58 47.147C120.229 46.4557 120.053 45.5717 120.053 44.495C120.053 43.373 120.24 42.4607 120.614 41.758C120.988 41.0553 121.492 40.5397 122.127 40.211C122.773 39.8823 123.504 39.718 124.32 39.718C124.785 39.718 125.232 39.769 125.663 39.871C126.094 39.9617 126.445 40.075 126.717 40.211L126.258 41.452C125.986 41.35 125.669 41.2537 125.306 41.163C124.943 41.0723 124.603 41.027 124.286 41.027C123.674 41.027 123.17 41.1573 122.773 41.418C122.376 41.6787 122.082 42.064 121.889 42.574C121.696 43.084 121.6 43.7187 121.6 44.478C121.6 45.2033 121.696 45.821 121.889 46.331C122.082 46.841 122.371 47.2263 122.756 47.487C123.141 47.7477 123.623 47.878 124.201 47.878C124.7 47.878 125.136 47.827 125.51 47.725C125.895 47.623 126.247 47.4983 126.564 47.351V48.677C126.258 48.8357 125.918 48.9547 125.544 49.034C125.181 49.1247 124.739 49.17 124.218 49.17ZM136.432 39.888V49H134.936V41.163H130.227V49H128.731V39.888H136.432ZM146.276 49H144.763V41.129H142.077C141.963 42.5683 141.822 43.798 141.652 44.818C141.482 45.8267 141.266 46.6483 141.006 47.283C140.745 47.9177 140.433 48.3823 140.071 48.677C139.708 48.9717 139.283 49.119 138.796 49.119C138.648 49.119 138.501 49.1077 138.354 49.085C138.218 49.0737 138.104 49.0453 138.014 49V47.878C138.082 47.9007 138.155 47.9177 138.235 47.929C138.314 47.9403 138.393 47.946 138.473 47.946C138.722 47.946 138.949 47.844 139.153 47.64C139.357 47.436 139.538 47.1243 139.697 46.705C139.867 46.2857 140.02 45.7587 140.156 45.124C140.292 44.478 140.411 43.7187 140.513 42.846C140.615 41.9733 140.705 40.9873 140.785 39.888H146.276V49ZM147.74 39.888H149.338L151.31 45.073C151.423 45.379 151.525 45.6737 151.616 45.957C151.718 46.2403 151.808 46.518 151.888 46.79C151.967 47.0507 152.029 47.3057 152.075 47.555H152.143C152.211 47.2717 152.318 46.9033 152.466 46.45C152.613 45.9853 152.766 45.5207 152.925 45.056L154.778 39.888H156.393L152.466 50.258C152.25 50.8247 151.995 51.3177 151.701 51.737C151.417 52.1677 151.066 52.4963 150.647 52.723C150.239 52.961 149.74 53.08 149.151 53.08C148.879 53.08 148.641 53.063 148.437 53.029C148.233 53.0063 148.057 52.978 147.91 52.944V51.754C148.034 51.7767 148.182 51.7993 148.352 51.822C148.533 51.8447 148.72 51.856 148.913 51.856C149.264 51.856 149.564 51.788 149.814 51.652C150.074 51.5273 150.295 51.3403 150.477 51.091C150.658 50.853 150.811 50.5697 150.936 50.241L151.412 49.034L147.74 39.888ZM161.285 39.735C162.395 39.735 163.217 39.9787 163.75 40.466C164.282 40.9533 164.549 41.7297 164.549 42.795V49H163.461L163.172 47.708H163.104C162.843 48.0367 162.571 48.3143 162.288 48.541C162.016 48.7563 161.698 48.915 161.336 49.017C160.984 49.119 160.554 49.17 160.044 49.17C159.5 49.17 159.007 49.0737 158.565 48.881C158.134 48.6883 157.794 48.3937 157.545 47.997C157.295 47.589 157.171 47.079 157.171 46.467C157.171 45.5603 157.528 44.8633 158.242 44.376C158.956 43.8773 160.055 43.6053 161.54 43.56L163.087 43.509V42.965C163.087 42.2057 162.922 41.6787 162.594 41.384C162.265 41.0893 161.8 40.942 161.2 40.942C160.724 40.942 160.27 41.0157 159.84 41.163C159.409 41.299 159.007 41.4577 158.633 41.639L158.174 40.517C158.57 40.3017 159.041 40.1203 159.585 39.973C160.129 39.8143 160.695 39.735 161.285 39.735ZM161.727 44.597C160.593 44.6423 159.806 44.8237 159.364 45.141C158.933 45.4583 158.718 45.906 158.718 46.484C158.718 46.994 158.871 47.368 159.177 47.606C159.494 47.844 159.896 47.963 160.384 47.963C161.154 47.963 161.795 47.7533 162.305 47.334C162.815 46.9033 163.07 46.246 163.07 45.362V44.546L161.727 44.597ZM173.653 41.146H170.678V49H169.199V41.146H166.258V39.888H173.653V41.146ZM178.899 39.735C180.01 39.735 180.831 39.9787 181.364 40.466C181.897 40.9533 182.163 41.7297 182.163 42.795V49H181.075L180.786 47.708H180.718C180.457 48.0367 180.185 48.3143 179.902 48.541C179.63 48.7563 179.313 48.915 178.95 49.017C178.599 49.119 178.168 49.17 177.658 49.17C177.114 49.17 176.621 49.0737 176.179 48.881C175.748 48.6883 175.408 48.3937 175.159 47.997C174.91 47.589 174.785 47.079 174.785 46.467C174.785 45.5603 175.142 44.8633 175.856 44.376C176.57 43.8773 177.669 43.6053 179.154 43.56L180.701 43.509V42.965C180.701 42.2057 180.537 41.6787 180.208 41.384C179.879 41.0893 179.415 40.942 178.814 40.942C178.338 40.942 177.885 41.0157 177.454 41.163C177.023 41.299 176.621 41.4577 176.247 41.639L175.788 40.517C176.185 40.3017 176.655 40.1203 177.199 39.973C177.743 39.8143 178.31 39.735 178.899 39.735ZM179.341 44.597C178.208 44.6423 177.42 44.8237 176.978 45.141C176.547 45.4583 176.332 45.906 176.332 46.484C176.332 46.994 176.485 47.368 176.791 47.606C177.108 47.844 177.511 47.963 177.998 47.963C178.769 47.963 179.409 47.7533 179.919 47.334C180.429 46.9033 180.684 46.246 180.684 45.362V44.546L179.341 44.597ZM193.97 52.162H192.508V49H184.977V39.888H186.473V47.742H191.182V39.888H192.678V47.759H193.97V52.162ZM197.129 45.447C197.129 45.549 197.124 45.6963 197.112 45.889C197.112 46.0703 197.107 46.2687 197.095 46.484C197.084 46.688 197.073 46.8863 197.061 47.079C197.05 47.2603 197.039 47.4077 197.027 47.521L201.906 39.888H203.742V49H202.348V43.628C202.348 43.4467 202.348 43.2087 202.348 42.914C202.36 42.6193 202.371 42.3303 202.382 42.047C202.394 41.7523 202.405 41.5313 202.416 41.384L197.571 49H195.718V39.888H197.129V45.447ZM218.474 44.427C218.474 45.4357 218.31 46.297 217.981 47.011C217.653 47.7137 217.188 48.252 216.587 48.626C215.987 48.9887 215.273 49.17 214.445 49.17C213.675 49.17 213 49.0113 212.422 48.694C211.844 48.3653 211.385 47.8893 211.045 47.266C210.705 46.6313 210.507 45.855 210.45 44.937H208.138V49H206.642V39.888H208.138V43.679H210.467C210.547 42.8177 210.756 42.098 211.096 41.52C211.448 40.9307 211.907 40.483 212.473 40.177C213.051 39.871 213.72 39.718 214.479 39.718C215.261 39.718 215.953 39.905 216.553 40.279C217.154 40.6417 217.624 41.1743 217.964 41.877C218.304 42.5683 218.474 43.4183 218.474 44.427ZM211.98 44.427C211.98 45.1863 212.065 45.8267 212.235 46.348C212.417 46.8693 212.689 47.266 213.051 47.538C213.414 47.7987 213.884 47.929 214.462 47.929C215.04 47.929 215.511 47.7987 215.873 47.538C216.236 47.266 216.502 46.8693 216.672 46.348C216.842 45.8267 216.927 45.1863 216.927 44.427C216.927 43.6677 216.842 43.033 216.672 42.523C216.502 42.013 216.236 41.6277 215.873 41.367C215.511 41.1063 215.04 40.976 214.462 40.976C213.884 40.976 213.414 41.1063 213.051 41.367C212.689 41.6277 212.417 42.013 212.235 42.523C212.065 43.033 211.98 43.6677 211.98 44.427ZM72.2773 58.888H73.8753L75.8473 64.073C75.9606 64.379 76.0626 64.6737 76.1533 64.957C76.2553 65.2403 76.3459 65.518 76.4253 65.79C76.5046 66.0507 76.5669 66.3057 76.6123 66.555H76.6803C76.7483 66.2717 76.8559 65.9033 77.0033 65.45C77.1506 64.9853 77.3036 64.5207 77.4623 64.056L79.3153 58.888H80.9303L77.0033 69.258C76.7879 69.8247 76.5329 70.3177 76.2383 70.737C75.9549 71.1677 75.6036 71.4963 75.1843 71.723C74.7763 71.961 74.2776 72.08 73.6883 72.08C73.4163 72.08 73.1783 72.063 72.9743 72.029C72.7703 72.0063 72.5946 71.978 72.4473 71.944V70.754C72.5719 70.7767 72.7193 70.7993 72.8893 70.822C73.0706 70.8447 73.2576 70.856 73.4503 70.856C73.8016 70.856 74.1019 70.788 74.3513 70.652C74.6119 70.5273 74.8329 70.3403 75.0143 70.091C75.1956 69.853 75.3486 69.5697 75.4733 69.241L75.9493 68.034L72.2773 58.888ZM87.7603 58.888H89.3923L85.4993 63.274L89.7153 68H87.9813L83.8673 63.376V68H82.3713V58.888H83.8673V63.308L87.7603 58.888ZM94.8203 58.735C95.931 58.735 96.7526 58.9787 97.2853 59.466C97.818 59.9533 98.0843 60.7297 98.0843 61.795V68H96.9963L96.7073 66.708H96.6393C96.3786 67.0367 96.1066 67.3143 95.8233 67.541C95.5513 67.7563 95.234 67.915 94.8713 68.017C94.52 68.119 94.0893 68.17 93.5793 68.17C93.0353 68.17 92.5423 68.0737 92.1003 67.881C91.6696 67.6883 91.3296 67.3937 91.0803 66.997C90.831 66.589 90.7063 66.079 90.7063 65.467C90.7063 64.5603 91.0633 63.8633 91.7773 63.376C92.4913 62.8773 93.5906 62.6053 95.0753 62.56L96.6223 62.509V61.965C96.6223 61.2057 96.458 60.6787 96.1293 60.384C95.8007 60.0893 95.336 59.942 94.7353 59.942C94.2593 59.942 93.806 60.0157 93.3753 60.163C92.9446 60.299 92.5423 60.4577 92.1683 60.639L91.7093 59.517C92.106 59.3017 92.5763 59.1203 93.1203 58.973C93.6643 58.8143 94.231 58.735 94.8203 58.735ZM95.2623 63.597C94.129 63.6423 93.3413 63.8237 92.8993 64.141C92.4686 64.4583 92.2533 64.906 92.2533 65.484C92.2533 65.994 92.4063 66.368 92.7123 66.606C93.0296 66.844 93.432 66.963 93.9193 66.963C94.69 66.963 95.3303 66.7533 95.8403 66.334C96.3503 65.9033 96.6053 65.246 96.6053 64.362V63.546L95.2623 63.597ZM103.296 58.718C103.987 58.718 104.588 58.8143 105.098 59.007C105.608 59.1883 106.004 59.4603 106.288 59.823C106.571 60.1743 106.713 60.605 106.713 61.115C106.713 61.6703 106.56 62.1123 106.254 62.441C105.948 62.7583 105.528 62.9907 104.996 63.138V63.206C105.358 63.308 105.693 63.4497 105.999 63.631C106.305 63.8123 106.548 64.0503 106.73 64.345C106.922 64.6397 107.019 65.0193 107.019 65.484C107.019 65.9827 106.877 66.436 106.594 66.844C106.322 67.252 105.897 67.575 105.319 67.813C104.752 68.051 104.021 68.17 103.126 68.17C102.695 68.17 102.281 68.1473 101.885 68.102C101.499 68.0567 101.148 67.9887 100.831 67.898C100.525 67.8073 100.253 67.6997 100.015 67.575V66.232C100.4 66.4133 100.853 66.5777 101.375 66.725C101.907 66.8723 102.485 66.946 103.109 66.946C103.562 66.946 103.97 66.895 104.333 66.793C104.707 66.691 105.001 66.5323 105.217 66.317C105.432 66.0903 105.54 65.7843 105.54 65.399C105.54 65.0477 105.443 64.7643 105.251 64.549C105.058 64.3223 104.769 64.1523 104.384 64.039C104.01 63.9257 103.528 63.869 102.939 63.869H101.715V62.645H102.701C103.483 62.645 104.106 62.543 104.571 62.339C105.047 62.1237 105.285 61.761 105.285 61.251C105.285 60.8203 105.103 60.4973 104.741 60.282C104.389 60.0667 103.879 59.959 103.211 59.959C102.712 59.959 102.27 60.01 101.885 60.112C101.511 60.2027 101.097 60.3443 100.644 60.537L100.117 59.347C100.604 59.1317 101.114 58.973 101.647 58.871C102.179 58.769 102.729 58.718 103.296 58.718ZM112.684 58.735C113.794 58.735 114.616 58.9787 115.149 59.466C115.681 59.9533 115.948 60.7297 115.948 61.795V68H114.86L114.571 66.708H114.503C114.242 67.0367 113.97 67.3143 113.687 67.541C113.415 67.7563 113.097 67.915 112.735 68.017C112.383 68.119 111.953 68.17 111.443 68.17C110.899 68.17 110.406 68.0737 109.964 67.881C109.533 67.6883 109.193 67.3937 108.944 66.997C108.694 66.589 108.57 66.079 108.57 65.467C108.57 64.5603 108.927 63.8633 109.641 63.376C110.355 62.8773 111.454 62.6053 112.939 62.56L114.486 62.509V61.965C114.486 61.2057 114.321 60.6787 113.993 60.384C113.664 60.0893 113.199 59.942 112.599 59.942C112.123 59.942 111.669 60.0157 111.239 60.163C110.808 60.299 110.406 60.4577 110.032 60.639L109.573 59.517C109.969 59.3017 110.44 59.1203 110.984 58.973C111.528 58.8143 112.094 58.735 112.684 58.735ZM113.126 63.597C111.992 63.6423 111.205 63.8237 110.763 64.141C110.332 64.4583 110.117 64.906 110.117 65.484C110.117 65.994 110.27 66.368 110.576 66.606C110.893 66.844 111.295 66.963 111.783 66.963C112.553 66.963 113.194 66.7533 113.704 66.334C114.214 65.9033 114.469 65.246 114.469 64.362V63.546L113.126 63.597ZM120.258 58.888V62.679H125.205V58.888H126.701V68H125.205V63.937H120.258V68H118.762V58.888H120.258ZM131.082 58.888V62.679H136.029V58.888H137.525V68H136.029V63.937H131.082V68H129.586V58.888H131.082ZM148.332 63.427C148.332 64.1863 148.23 64.8607 148.026 65.45C147.834 66.028 147.55 66.521 147.176 66.929C146.814 67.337 146.366 67.6487 145.833 67.864C145.312 68.068 144.728 68.17 144.082 68.17C143.482 68.17 142.926 68.068 142.416 67.864C141.906 67.6487 141.464 67.337 141.09 66.929C140.716 66.521 140.422 66.028 140.206 65.45C140.002 64.8607 139.9 64.1863 139.9 63.427C139.9 62.4183 140.07 61.5683 140.41 60.877C140.75 60.1743 141.238 59.6417 141.872 59.279C142.507 58.905 143.261 58.718 144.133 58.718C144.961 58.718 145.686 58.905 146.309 59.279C146.944 59.6417 147.437 60.1743 147.788 60.877C148.151 61.5683 148.332 62.4183 148.332 63.427ZM141.447 63.427C141.447 64.141 141.538 64.7643 141.719 65.297C141.912 65.8183 142.207 66.2207 142.603 66.504C143 66.7873 143.504 66.929 144.116 66.929C144.728 66.929 145.233 66.7873 145.629 66.504C146.026 66.2207 146.315 65.8183 146.496 65.297C146.689 64.7643 146.785 64.141 146.785 63.427C146.785 62.7017 146.689 62.084 146.496 61.574C146.304 61.064 146.009 60.673 145.612 60.401C145.227 60.1177 144.723 59.976 144.099 59.976C143.17 59.976 142.496 60.282 142.076 60.894C141.657 61.506 141.447 62.3503 141.447 63.427ZM156.262 58.888V60.146H152.199V68H150.703V58.888H156.262ZM165.814 63.427C165.814 64.1863 165.712 64.8607 165.508 65.45C165.315 66.028 165.032 66.521 164.658 66.929C164.295 67.337 163.847 67.6487 163.315 67.864C162.793 68.068 162.21 68.17 161.564 68.17C160.963 68.17 160.408 68.068 159.898 67.864C159.388 67.6487 158.946 67.337 158.572 66.929C158.198 66.521 157.903 66.028 157.688 65.45C157.484 64.8607 157.382 64.1863 157.382 63.427C157.382 62.4183 157.552 61.5683 157.892 60.877C158.232 60.1743 158.719 59.6417 159.354 59.279C159.988 58.905 160.742 58.718 161.615 58.718C162.442 58.718 163.167 58.905 163.791 59.279C164.425 59.6417 164.918 60.1743 165.27 60.877C165.632 61.5683 165.814 62.4183 165.814 63.427ZM158.929 63.427C158.929 64.141 159.019 64.7643 159.201 65.297C159.393 65.8183 159.688 66.2207 160.085 66.504C160.481 66.7873 160.986 66.929 161.598 66.929C162.21 66.929 162.714 66.7873 163.111 66.504C163.507 66.2207 163.796 65.8183 163.978 65.297C164.17 64.7643 164.267 64.141 164.267 63.427C164.267 62.7017 164.17 62.084 163.978 61.574C163.785 61.064 163.49 60.673 163.094 60.401C162.708 60.1177 162.204 59.976 161.581 59.976C160.651 59.976 159.977 60.282 159.558 60.894C159.138 61.506 158.929 62.3503 158.929 63.427ZM68.8025 82.427C68.8025 83.1863 68.7005 83.8607 68.4965 84.45C68.3039 85.028 68.0205 85.521 67.6465 85.929C67.2839 86.337 66.8362 86.6487 66.3035 86.864C65.7822 87.068 65.1985 87.17 64.5525 87.17C63.9519 87.17 63.3965 87.068 62.8865 86.864C62.3765 86.6487 61.9345 86.337 61.5605 85.929C61.1865 85.521 60.8919 85.028 60.6765 84.45C60.4725 83.8607 60.3705 83.1863 60.3705 82.427C60.3705 81.4183 60.5405 80.5683 60.8805 79.877C61.2205 79.1743 61.7079 78.6417 62.3425 78.279C62.9772 77.905 63.7309 77.718 64.6035 77.718C65.4309 77.718 66.1562 77.905 66.7795 78.279C67.4142 78.6417 67.9072 79.1743 68.2585 79.877C68.6212 80.5683 68.8025 81.4183 68.8025 82.427ZM61.9175 82.427C61.9175 83.141 62.0082 83.7643 62.1895 84.297C62.3822 84.8183 62.6769 85.2207 63.0735 85.504C63.4702 85.7873 63.9745 85.929 64.5865 85.929C65.1985 85.929 65.7029 85.7873 66.0995 85.504C66.4962 85.2207 66.7852 84.8183 66.9665 84.297C67.1592 83.7643 67.2555 83.141 67.2555 82.427C67.2555 81.7017 67.1592 81.084 66.9665 80.574C66.7739 80.064 66.4792 79.673 66.0825 79.401C65.6972 79.1177 65.1929 78.976 64.5695 78.976C63.6402 78.976 62.9659 79.282 62.5465 79.894C62.1272 80.506 61.9175 81.3503 61.9175 82.427ZM70.6975 81.526C70.6975 80.2 70.8278 79.0723 71.0885 78.143C71.3605 77.2023 71.7742 76.4543 72.3295 75.899C72.8962 75.3323 73.6215 74.9527 74.5055 74.76C75.2422 74.6013 75.9618 74.4597 76.6645 74.335C77.3672 74.2103 78.0245 74.097 78.6365 73.995L78.8915 75.304C78.5968 75.3493 78.2682 75.406 77.9055 75.474C77.5428 75.5307 77.1745 75.593 76.8005 75.661C76.4265 75.7177 76.0638 75.78 75.7125 75.848C75.3725 75.9047 75.0722 75.9613 74.8115 76.018C74.4375 76.0973 74.1032 76.2333 73.8085 76.426C73.5138 76.6073 73.2588 76.8567 73.0435 77.174C72.8395 77.4913 72.6752 77.8823 72.5505 78.347C72.4258 78.8117 72.3522 79.3613 72.3295 79.996H72.4315C72.5902 79.7807 72.8055 79.5597 73.0775 79.333C73.3608 79.1063 73.6952 78.9137 74.0805 78.755C74.4772 78.5963 74.9248 78.517 75.4235 78.517C76.2168 78.517 76.8742 78.6927 77.3955 79.044C77.9282 79.384 78.3248 79.86 78.5855 80.472C78.8575 81.084 78.9935 81.798 78.9935 82.614C78.9935 83.6227 78.8178 84.467 78.4665 85.147C78.1152 85.827 77.6278 86.337 77.0045 86.677C76.3812 87.0057 75.6558 87.17 74.8285 87.17C74.2052 87.17 73.6385 87.051 73.1285 86.813C72.6185 86.5637 72.1822 86.201 71.8195 85.725C71.4568 85.249 71.1792 84.6597 70.9865 83.957C70.7938 83.2543 70.6975 82.444 70.6975 81.526ZM74.9475 85.929C75.4462 85.929 75.8768 85.827 76.2395 85.623C76.6135 85.419 76.9025 85.0847 77.1065 84.62C77.3105 84.1553 77.4125 83.5377 77.4125 82.767C77.4125 81.8377 77.2368 81.1067 76.8855 80.574C76.5455 80.03 75.9788 79.758 75.1855 79.758C74.6868 79.758 74.2335 79.8713 73.8255 80.098C73.4175 80.3133 73.0775 80.5627 72.8055 80.846C72.5335 81.1293 72.3408 81.3673 72.2275 81.56C72.2275 82.1153 72.2672 82.6537 72.3465 83.175C72.4258 83.6963 72.5618 84.1667 72.7545 84.586C72.9585 84.994 73.2362 85.3227 73.5875 85.572C73.9502 85.81 74.4035 85.929 74.9475 85.929ZM89.2723 82.427C89.2723 83.1863 89.1703 83.8607 88.9663 84.45C88.7736 85.028 88.4903 85.521 88.1163 85.929C87.7536 86.337 87.3059 86.6487 86.7733 86.864C86.2519 87.068 85.6683 87.17 85.0223 87.17C84.4216 87.17 83.8663 87.068 83.3563 86.864C82.8463 86.6487 82.4043 86.337 82.0303 85.929C81.6563 85.521 81.3616 85.028 81.1463 84.45C80.9423 83.8607 80.8403 83.1863 80.8403 82.427C80.8403 81.4183 81.0103 80.5683 81.3503 79.877C81.6903 79.1743 82.1776 78.6417 82.8123 78.279C83.4469 77.905 84.2006 77.718 85.0733 77.718C85.9006 77.718 86.6259 77.905 87.2493 78.279C87.8839 78.6417 88.3769 79.1743 88.7283 79.877C89.0909 80.5683 89.2723 81.4183 89.2723 82.427ZM82.3873 82.427C82.3873 83.141 82.4779 83.7643 82.6593 84.297C82.8519 84.8183 83.1466 85.2207 83.5433 85.504C83.9399 85.7873 84.4443 85.929 85.0563 85.929C85.6683 85.929 86.1726 85.7873 86.5693 85.504C86.9659 85.2207 87.2549 84.8183 87.4363 84.297C87.6289 83.7643 87.7253 83.141 87.7253 82.427C87.7253 81.7017 87.6289 81.084 87.4363 80.574C87.2436 80.064 86.9489 79.673 86.5523 79.401C86.1669 79.1177 85.6626 78.976 85.0393 78.976C84.1099 78.976 83.4356 79.282 83.0163 79.894C82.5969 80.506 82.3873 81.3503 82.3873 82.427ZM95.9782 77.718C97.1002 77.718 98.0012 78.109 98.6812 78.891C99.3726 79.673 99.7182 80.8517 99.7182 82.427C99.7182 83.4583 99.5596 84.331 99.2422 85.045C98.9362 85.7477 98.4999 86.2803 97.9332 86.643C97.3779 86.9943 96.7206 87.17 95.9612 87.17C95.4966 87.17 95.0829 87.1077 94.7202 86.983C94.3576 86.8583 94.0459 86.6997 93.7852 86.507C93.5359 86.303 93.3206 86.082 93.1392 85.844H93.0372C93.0599 86.0367 93.0826 86.2803 93.1052 86.575C93.1279 86.8697 93.1392 87.1247 93.1392 87.34V91.08H91.6432V77.888H92.8672L93.0712 79.129H93.1392C93.3206 78.8683 93.5359 78.6303 93.7852 78.415C94.0459 78.1997 94.3519 78.0297 94.7032 77.905C95.0659 77.7803 95.4909 77.718 95.9782 77.718ZM95.7062 78.976C95.0942 78.976 94.6012 79.095 94.2272 79.333C93.8532 79.5597 93.5812 79.9053 93.4112 80.37C93.2412 80.8347 93.1506 81.424 93.1392 82.138V82.427C93.1392 83.175 93.2186 83.8097 93.3772 84.331C93.5359 84.8523 93.8022 85.249 94.1762 85.521C94.5616 85.793 95.0829 85.929 95.7402 85.929C96.2956 85.929 96.7489 85.776 97.1002 85.47C97.4629 85.164 97.7292 84.7503 97.8992 84.229C98.0806 83.6963 98.1712 83.09 98.1712 82.41C98.1712 81.3673 97.9672 80.5343 97.5592 79.911C97.1626 79.2877 96.5449 78.976 95.7062 78.976ZM100.508 77.888H102.106L104.078 83.073C104.192 83.379 104.294 83.6737 104.384 83.957C104.486 84.2403 104.577 84.518 104.656 84.79C104.736 85.0507 104.798 85.3057 104.843 85.555H104.911C104.979 85.2717 105.087 84.9033 105.234 84.45C105.382 83.9853 105.535 83.5207 105.693 83.056L107.546 77.888H109.161L105.234 88.258C105.019 88.8247 104.764 89.3177 104.469 89.737C104.186 90.1677 103.835 90.4963 103.415 90.723C103.007 90.961 102.509 91.08 101.919 91.08C101.647 91.08 101.409 91.063 101.205 91.029C101.001 91.0063 100.826 90.978 100.678 90.944V89.754C100.803 89.7767 100.95 89.7993 101.12 89.822C101.302 89.8447 101.489 89.856 101.681 89.856C102.033 89.856 102.333 89.788 102.582 89.652C102.843 89.5273 103.064 89.3403 103.245 89.091C103.427 88.853 103.58 88.5697 103.704 88.241L104.18 87.034L100.508 77.888ZM117.036 77.888V85.742H118.362V90.162H116.917V87H110.576V90.162H109.148V85.742H109.879C110.401 85.0167 110.831 84.229 111.171 83.379C111.523 82.5177 111.783 81.6223 111.953 80.693C112.135 79.7523 112.231 78.8173 112.242 77.888H117.036ZM113.568 79.061C113.523 79.8317 113.404 80.6307 113.211 81.458C113.019 82.274 112.769 83.056 112.463 83.804C112.169 84.552 111.823 85.198 111.426 85.742H115.591V79.061H113.568ZM128.07 82.427C128.07 83.1863 127.968 83.8607 127.764 84.45C127.571 85.028 127.288 85.521 126.914 85.929C126.551 86.337 126.104 86.6487 125.571 86.864C125.05 87.068 124.466 87.17 123.82 87.17C123.219 87.17 122.664 87.068 122.154 86.864C121.644 86.6487 121.202 86.337 120.828 85.929C120.454 85.521 120.159 85.028 119.944 84.45C119.74 83.8607 119.638 83.1863 119.638 82.427C119.638 81.4183 119.808 80.5683 120.148 79.877C120.488 79.1743 120.975 78.6417 121.61 78.279C122.245 77.905 122.998 77.718 123.871 77.718C124.698 77.718 125.424 77.905 126.047 78.279C126.682 78.6417 127.175 79.1743 127.526 79.877C127.889 80.5683 128.07 81.4183 128.07 82.427ZM121.185 82.427C121.185 83.141 121.276 83.7643 121.457 84.297C121.65 84.8183 121.944 85.2207 122.341 85.504C122.738 85.7873 123.242 85.929 123.854 85.929C124.466 85.929 124.97 85.7873 125.367 85.504C125.764 85.2207 126.053 84.8183 126.234 84.297C126.427 83.7643 126.523 83.141 126.523 82.427C126.523 81.7017 126.427 81.084 126.234 80.574C126.041 80.064 125.747 79.673 125.35 79.401C124.965 79.1177 124.46 78.976 123.837 78.976C122.908 78.976 122.233 79.282 121.814 79.894C121.395 80.506 121.185 81.3503 121.185 82.427ZM137.768 80.183C137.768 80.7497 137.598 81.1917 137.258 81.509C136.918 81.8263 136.482 82.0417 135.949 82.155V82.223C136.516 82.3023 137.009 82.5063 137.428 82.835C137.847 83.1523 138.057 83.651 138.057 84.331C138.057 84.7163 137.983 85.0733 137.836 85.402C137.7 85.7307 137.485 86.014 137.19 86.252C136.895 86.49 136.516 86.677 136.051 86.813C135.586 86.9377 135.025 87 134.368 87H130.441V77.888H134.351C134.997 77.888 135.575 77.9617 136.085 78.109C136.606 78.245 137.014 78.483 137.309 78.823C137.615 79.1517 137.768 79.605 137.768 80.183ZM136.51 84.331C136.51 83.8097 136.312 83.4357 135.915 83.209C135.518 82.9823 134.935 82.869 134.164 82.869H131.937V85.793H134.198C134.946 85.793 135.518 85.6853 135.915 85.47C136.312 85.2433 136.51 84.8637 136.51 84.331ZM136.255 80.37C136.255 79.9393 136.096 79.6277 135.779 79.435C135.473 79.231 134.969 79.129 134.266 79.129H131.937V81.628H133.994C134.731 81.628 135.292 81.526 135.677 81.322C136.062 81.118 136.255 80.8007 136.255 80.37ZM143.687 77.735C144.798 77.735 145.619 77.9787 146.152 78.466C146.685 78.9533 146.951 79.7297 146.951 80.795V87H145.863L145.574 85.708H145.506C145.245 86.0367 144.973 86.3143 144.69 86.541C144.418 86.7563 144.101 86.915 143.738 87.017C143.387 87.119 142.956 87.17 142.446 87.17C141.902 87.17 141.409 87.0737 140.967 86.881C140.536 86.6883 140.196 86.3937 139.947 85.997C139.698 85.589 139.573 85.079 139.573 84.467C139.573 83.5603 139.93 82.8633 140.644 82.376C141.358 81.8773 142.457 81.6053 143.942 81.56L145.489 81.509V80.965C145.489 80.2057 145.325 79.6787 144.996 79.384C144.667 79.0893 144.203 78.942 143.602 78.942C143.126 78.942 142.673 79.0157 142.242 79.163C141.811 79.299 141.409 79.4577 141.035 79.639L140.576 78.517C140.973 78.3017 141.443 78.1203 141.987 77.973C142.531 77.8143 143.098 77.735 143.687 77.735ZM144.129 82.597C142.996 82.6423 142.208 82.8237 141.766 83.141C141.335 83.4583 141.12 83.906 141.12 84.484C141.12 84.994 141.273 85.368 141.579 85.606C141.896 85.844 142.299 85.963 142.786 85.963C143.557 85.963 144.197 85.7533 144.707 85.334C145.217 84.9033 145.472 84.246 145.472 83.362V82.546L144.129 82.597ZM151.261 77.888V81.679H156.208V77.888H157.704V87H156.208V82.937H151.261V87H149.765V77.888H151.261ZM162.001 83.447C162.001 83.549 161.995 83.6963 161.984 83.889C161.984 84.0703 161.978 84.2687 161.967 84.484C161.955 84.688 161.944 84.8863 161.933 85.079C161.921 85.2603 161.91 85.4077 161.899 85.521L166.778 77.888H168.614V87H167.22V81.628C167.22 81.4467 167.22 81.2087 167.22 80.914C167.231 80.6193 167.242 80.3303 167.254 80.047C167.265 79.7523 167.276 79.5313 167.288 79.384L162.443 87H160.59V77.888H162.001V83.447ZM172.074 87H170.34L172.941 83.175C172.59 83.0843 172.25 82.9427 171.921 82.75C171.593 82.546 171.326 82.2683 171.122 81.917C170.918 81.5543 170.816 81.1067 170.816 80.574C170.816 79.7013 171.111 79.0383 171.7 78.585C172.29 78.1203 173.072 77.888 174.046 77.888H178.126V87H176.63V83.379H174.42L172.074 87ZM172.261 80.591C172.261 81.1123 172.454 81.5033 172.839 81.764C173.236 82.0133 173.786 82.138 174.488 82.138H176.63V79.129H174.199C173.508 79.129 173.009 79.265 172.703 79.537C172.409 79.809 172.261 80.1603 172.261 80.591Z" fill="white"/>
    <g filter="url(#filter1_d_48_1596)">
        <rect x="84.2549" y="116.5" width="71.6259" height="71.6259" rx="16" fill="url(#paint0_linear_48_1596)"/>
    </g>
    <mask id="mask0_48_1596" style="mask-type:alpha" maskUnits="userSpaceOnUse" x="93" y="125" width="56" height="56">
        <path d="M129.866 130.157C128.91 129.2 127.253 129.853 127.253 131.183V139.327C127.253 142.733 130.146 145.557 133.67 145.557C135.886 145.58 138.966 145.58 141.603 145.58C142.933 145.58 143.633 144.017 142.7 143.083C139.34 139.7 133.32 133.61 129.866 130.157Z" fill="black"/>
        <path d="M140.833 148.777H134.09C128.56 148.777 124.056 144.273 124.056 138.743V132C124.056 130.717 123.006 129.667 121.723 129.667H111.83C104.643 129.667 98.833 134.333 98.833 142.663V163.337C98.833 171.667 104.643 176.333 111.83 176.333H130.17C137.356 176.333 143.166 171.667 143.166 163.337V151.11C143.166 149.827 142.116 148.777 140.833 148.777ZM119.833 166.417H110.5C109.543 166.417 108.75 165.623 108.75 164.667C108.75 163.71 109.543 162.917 110.5 162.917H119.833C120.79 162.917 121.583 163.71 121.583 164.667C121.583 165.623 120.79 166.417 119.833 166.417ZM124.5 157.083H110.5C109.543 157.083 108.75 156.29 108.75 155.333C108.75 154.377 109.543 153.583 110.5 153.583H124.5C125.456 153.583 126.25 154.377 126.25 155.333C126.25 156.29 125.456 157.083 124.5 157.083Z" fill="black"/>
    </mask>
    <g mask="url(#mask0_48_1596)">
        <rect x="82.5801" y="92.116" width="100.537" height="117.529" fill="url(#paint1_linear_48_1596)"/>
    </g>
    <g filter="url(#filter2_f_48_1596)">
        <rect x="100.111" y="121.421" width="39.3669" height="2.18705" fill="#CCCEFF"/>
    </g>
    <g filter="url(#filter3_f_48_1596)">
        <rect x="88.6289" y="171.176" width="39.3669" height="1.64029" transform="rotate(-90 88.6289 171.176)" fill="#CCCEFF"/>
    </g>
    <g filter="url(#filter4_f_48_1596)">
        <rect x="149.319" y="172.27" width="39.3669" height="3.28058" transform="rotate(-90 149.319 172.27)" fill="#CCCEFF"/>
    </g>
    <g filter="url(#filter5_f_48_1596)">
        <rect x="150.413" y="143.838" width="10.9353" height="1.09353" transform="rotate(-90 150.413 143.838)" fill="#CCCEFF"/>
    </g>
    <defs>
        <filter id="filter0_bd_48_1596" x="-7" y="-11" width="255" height="255" filterUnits="userSpaceOnUse" color-interpolation-filters="sRGB">
            <feFlood flood-opacity="0" result="BackgroundImageFix"/>
            <feGaussianBlur in="BackgroundImageFix" stdDeviation="5.5"/>
            <feComposite in2="SourceAlpha" operator="in" result="effect1_backgroundBlur_48_1596"/>
            <feColorMatrix in="SourceAlpha" type="matrix" values="0 0 0 0 0 0 0 0 0 0 0 0 0 0 0 0 0 0 127 0" result="hardAlpha"/>
            <feOffset dy="4"/>
            <feGaussianBlur stdDeviation="2"/>
            <feComposite in2="hardAlpha" operator="out"/>
            <feColorMatrix type="matrix" values="0 0 0 0 0 0 0 0 0 0 0 0 0 0 0 0 0 0 0.25 0"/>
            <feBlend mode="normal" in2="effect1_backgroundBlur_48_1596" result="effect2_dropShadow_48_1596"/>
            <feBlend mode="normal" in="SourceGraphic" in2="effect2_dropShadow_48_1596" result="shape"/>
        </filter>
        <filter id="filter1_d_48_1596" x="77.2549" y="109.5" width="87.626" height="87.6259" filterUnits="userSpaceOnUse" color-interpolation-filters="sRGB">
            <feFlood flood-opacity="0" result="BackgroundImageFix"/>
            <feColorMatrix in="SourceAlpha" type="matrix" values="0 0 0 0 0 0 0 0 0 0 0 0 0 0 0 0 0 0 127 0" result="hardAlpha"/>
            <feMorphology radius="6" operator="erode" in="SourceAlpha" result="effect1_dropShadow_48_1596"/>
            <feOffset dx="1" dy="1"/>
            <feGaussianBlur stdDeviation="7"/>
            <feComposite in2="hardAlpha" operator="out"/>
            <feColorMatrix type="matrix" values="0 0 0 0 0.956863 0 0 0 0 0.811765 0 0 0 0 0.305882 0 0 0 1 0"/>
            <feBlend mode="normal" in2="BackgroundImageFix" result="effect1_dropShadow_48_1596"/>
            <feBlend mode="normal" in="SourceGraphic" in2="effect1_dropShadow_48_1596" result="shape"/>
        </filter>
        <filter id="filter2_f_48_1596" x="68.1113" y="89.4209" width="103.367" height="66.187" filterUnits="userSpaceOnUse" color-interpolation-filters="sRGB">
            <feFlood flood-opacity="0" result="BackgroundImageFix"/>
            <feBlend mode="normal" in="SourceGraphic" in2="BackgroundImageFix" result="shape"/>
            <feGaussianBlur stdDeviation="16" result="effect1_foregroundBlur_48_1596"/>
        </filter>
        <filter id="filter3_f_48_1596" x="56.6289" y="99.8094" width="65.6406" height="103.367" filterUnits="userSpaceOnUse" color-interpolation-filters="sRGB">
            <feFlood flood-opacity="0" result="BackgroundImageFix"/>
            <feBlend mode="normal" in="SourceGraphic" in2="BackgroundImageFix" result="shape"/>
            <feGaussianBlur stdDeviation="16" result="effect1_foregroundBlur_48_1596"/>
        </filter>
        <filter id="filter4_f_48_1596" x="117.319" y="100.903" width="67.2803" height="103.367" filterUnits="userSpaceOnUse" color-interpolation-filters="sRGB">
            <feFlood flood-opacity="0" result="BackgroundImageFix"/>
            <feBlend mode="normal" in="SourceGraphic" in2="BackgroundImageFix" result="shape"/>
            <feGaussianBlur stdDeviation="16" result="effect1_foregroundBlur_48_1596"/>
        </filter>
        <filter id="filter5_f_48_1596" x="136.413" y="118.903" width="29.0938" height="38.9352" filterUnits="userSpaceOnUse" color-interpolation-filters="sRGB">
            <feFlood flood-opacity="0" result="BackgroundImageFix"/>
            <feBlend mode="normal" in="SourceGraphic" in2="BackgroundImageFix" result="shape"/>
            <feGaussianBlur stdDeviation="7" result="effect1_foregroundBlur_48_1596"/>
        </filter>
        <linearGradient id="paint0_linear_48_1596" x1="120.068" y1="116.5" x2="120.068" y2="188.126" gradientUnits="userSpaceOnUse">
            <stop stop-color="#FED74B"/>
            <stop offset="1" stop-color="#B89415"/>
        </linearGradient>
        <linearGradient id="paint1_linear_48_1596" x1="132.848" y1="92.116" x2="132.848" y2="209.645" gradientUnits="userSpaceOnUse">
            <stop stop-color="white"/>
            <stop offset="0.484375" stop-color="#E2D8DC"/>
            <stop offset="0.734375" stop-color="#E9EAF2"/>
            <stop offset="1" stop-color="#C4C3F9"/>
        </linearGradient>
    </defs>
</svg>
